<svg width="156" height="87" viewBox="0 0 156 87" fill="none" xmlns="http://www.w3.org/2000/svg">
<g clip-path="url(#clip0_91_16)">
<path d="M47.8947 36.1313C44.8622 34.4107 41.0769 34.7334 38.367 36.9056V36.8626L38.1627 37.0454C31.2158 42.9814 21.516 42.9814 14.5583 37.0454L14.354 36.8626V36.9164C14.1604 36.7443 13.9669 36.5722 13.7411 36.4324C13.3109 36.1313 12.8055 35.8625 12.2893 35.6582C11.7516 35.4431 11.2139 35.2818 10.73 35.185C7.97709 34.6366 5.05209 35.5184 3.09492 37.4863C2.74004 37.8412 2.40668 38.2498 2.04106 38.7767C1.79372 39.1531 1.49262 39.6585 1.26679 40.2285C1.03021 40.7447 0.890412 41.2823 0.761368 41.82C0.675339 42.2932 0.632324 42.8416 0.632324 43.4761C0.632324 44.1106 0.675339 44.6482 0.772122 45.1322C0.901166 45.6591 1.04096 46.2075 1.27754 46.713C1.46036 47.1646 1.69694 47.6055 2.05181 48.1647C2.40668 48.6809 2.74004 49.0895 3.09492 49.4444C4.66495 51.0144 6.8372 51.907 9.07396 51.907C9.55788 51.907 10.0633 51.8532 10.73 51.7349C11.2139 51.6381 11.7516 51.4768 12.2893 51.2618C12.8055 51.0574 13.3109 50.7886 13.7411 50.4875C13.9669 50.3477 14.1712 50.1756 14.3648 50.0036V50.0681L14.5691 49.8853C21.516 43.9493 31.2158 43.9493 38.1734 49.8853L38.3777 50.0466C38.7434 50.3369 39.0875 50.5843 39.4531 50.7994C40.7435 51.5306 42.206 51.9177 43.6793 51.9177C46.6796 51.9177 49.4755 50.3047 50.981 47.6915C53.2823 43.6804 51.9059 38.4971 47.8947 36.1313Z" fill="black"/>
<path d="M82.4677 36.1313C79.4352 34.4107 75.6499 34.7334 72.94 36.9056V36.8626L72.7357 37.0454C65.7888 42.9814 56.089 42.9814 49.1313 37.0454L48.927 36.8626V36.9164C48.7335 36.7443 48.5399 36.5722 48.3141 36.4324C47.8839 36.1313 47.3785 35.8625 46.8623 35.6582C46.3246 35.4431 45.787 35.2818 45.303 35.185C42.5501 34.6366 39.6251 35.5184 37.6679 37.4863C37.3131 37.8412 36.9797 38.2498 36.6141 38.7767C36.3667 39.1531 36.0656 39.6585 35.8398 40.2285C35.6032 40.7447 35.4634 41.2823 35.3344 41.82C35.2483 42.3039 35.1946 42.8416 35.1946 43.4761C35.1946 44.1106 35.2376 44.6482 35.3344 45.1322C35.4634 45.6591 35.6032 46.2075 35.8398 46.713C36.0226 47.1646 36.2592 47.6055 36.6141 48.1647C36.9689 48.6809 37.3023 49.0895 37.6572 49.4444C39.2272 51.0144 41.3995 51.907 43.6362 51.907C44.1201 51.907 44.6256 51.8532 45.2923 51.7349C45.7762 51.6381 46.3139 51.4768 46.8516 51.2618C47.3677 51.0574 47.8732 50.7886 48.3033 50.4875C48.5291 50.3477 48.7335 50.1756 48.927 50.0036V50.0681L49.1313 49.8853C56.0782 43.9493 65.778 43.9493 72.7357 49.8853L72.94 50.0466C73.3056 50.3369 73.6497 50.5843 74.0154 50.7994C75.3058 51.5306 76.7683 51.9177 78.2415 51.9177C81.2418 51.9177 84.0378 50.3047 85.5433 47.6915C87.8446 43.6804 86.4681 38.4971 82.4677 36.1313Z" fill="black"/>
<path d="M151.603 36.1313C148.571 34.4107 144.785 34.7334 142.075 36.9056V36.8626L141.871 37.0454C134.924 42.9814 125.224 42.9814 118.267 37.0454L118.063 36.8626V36.9164C117.869 36.7443 117.675 36.5722 117.45 36.4324C117.019 36.1313 116.514 35.8625 115.998 35.6582C115.46 35.4431 114.922 35.2818 114.439 35.185C111.686 34.6366 108.761 35.5184 106.803 37.4863C106.449 37.8412 106.115 38.2498 105.75 38.7767C105.502 39.1531 105.201 39.6585 104.975 40.2285C104.739 40.7447 104.599 41.2823 104.47 41.82C104.384 42.3039 104.33 42.8416 104.33 43.4761C104.33 44.1106 104.373 44.6482 104.47 45.1322C104.599 45.6591 104.739 46.2075 104.975 46.713C105.158 47.1646 105.395 47.6055 105.75 48.1647C106.104 48.6809 106.438 49.0895 106.793 49.4444C108.363 51.0144 110.535 51.907 112.772 51.907C113.256 51.907 113.761 51.8532 114.428 51.7349C114.912 51.6381 115.449 51.4768 115.987 51.2618C116.503 51.0574 117.009 50.7886 117.439 50.4875C117.665 50.3477 117.869 50.1756 118.063 50.0036V50.0681L118.267 49.8853C125.214 43.9493 134.914 43.9493 141.871 49.8853L142.075 50.0466C142.441 50.3369 142.785 50.5843 143.151 50.7994C144.441 51.5306 145.904 51.9177 147.377 51.9177C150.377 51.9177 153.173 50.3047 154.679 47.6915C156.991 43.6804 155.604 38.4971 151.603 36.1313Z" fill="black"/>
<path d="M117.03 36.1313C113.998 34.4107 110.212 34.7334 107.502 36.9056V36.8626L107.298 37.0454C100.351 42.9814 90.6514 42.9814 83.6937 37.0454L83.4894 36.8626V36.9164C83.2958 36.7443 83.1023 36.5722 82.8764 36.4324C82.4463 36.1313 81.9409 35.8625 81.4247 35.6582C80.887 35.4431 80.3493 35.2818 79.8654 35.185C77.1125 34.6366 74.1875 35.5184 72.2303 37.4863C71.8754 37.8412 71.5421 38.2498 71.1764 38.7767C70.9291 39.1531 70.628 39.6585 70.4022 40.2285C70.1656 40.7447 70.0258 41.2823 69.8968 41.82C69.8107 42.3039 69.757 42.8416 69.757 43.4761C69.757 44.1106 69.8 44.6482 69.8968 45.1322C70.0258 45.6591 70.1656 46.2075 70.4022 46.713C70.585 47.1646 70.8216 47.6055 71.1764 48.1647C71.5313 48.6809 71.8647 49.0895 72.2196 49.4444C73.7896 51.0144 75.9618 51.907 78.1986 51.907C78.6825 51.907 79.1879 51.8532 79.8547 51.7349C80.3386 51.6381 80.8763 51.4768 81.4139 51.2618C81.9301 51.0574 82.4355 50.7886 82.8657 50.4875C83.0915 50.3477 83.2958 50.1756 83.4894 50.0036V50.0681L83.6937 49.8853C90.6406 43.9493 100.34 43.9493 107.298 49.8853L107.502 50.0466C107.868 50.3369 108.212 50.5843 108.578 50.7994C109.868 51.5306 111.331 51.9177 112.804 51.9177C115.804 51.9177 118.6 50.3047 120.106 47.6915C122.418 43.6804 121.041 38.4971 117.03 36.1313Z" fill="black"/>
<path d="M105.448 39.2284C103.728 42.2609 104.05 46.0462 106.223 48.7562H106.18L106.362 48.9605C112.298 55.9073 112.298 65.6072 106.362 72.5648L106.18 72.7691H106.233C106.061 72.9627 105.889 73.1562 105.749 73.3821C105.448 73.8122 105.18 74.3176 104.975 74.8338C104.76 75.3715 104.599 75.9092 104.502 76.3931C103.954 79.146 104.835 82.071 106.803 84.0282C107.158 84.3831 107.567 84.7164 108.094 85.0821C108.47 85.3294 108.976 85.6305 109.546 85.8563C110.062 86.0929 110.599 86.2327 111.137 86.3618C111.621 86.4478 112.159 86.5016 112.793 86.5016C113.428 86.5016 113.965 86.4585 114.449 86.3618C114.976 86.2327 115.525 86.0929 116.03 85.8563C116.482 85.6735 116.923 85.4369 117.482 85.0821C117.998 84.7272 118.407 84.3938 118.761 84.039C120.331 82.4689 121.224 80.2967 121.224 78.0599C121.224 77.576 121.17 77.0706 121.052 76.4039C120.955 75.9199 120.794 75.3823 120.579 74.8446C120.374 74.3284 120.106 73.823 119.805 73.3928C119.665 73.167 119.493 72.9627 119.321 72.7691H119.385L119.202 72.5648C113.266 65.6179 113.266 55.9181 119.202 48.9605L119.364 48.7562C119.654 48.3905 119.901 48.0464 120.116 47.6808C120.848 46.3903 121.235 44.9278 121.235 43.4546C121.235 40.4543 119.622 37.6584 117.009 36.1528C112.987 33.8408 107.803 35.2173 105.448 39.2284Z" fill="black"/>
<path d="M140.011 39.2284C138.29 42.2609 138.613 46.0462 140.785 48.7562H140.742L140.925 48.9605C146.861 55.9073 146.861 65.6072 140.925 72.5648L140.742 72.7691H140.796C140.624 72.9627 140.452 73.1562 140.312 73.3821C140.011 73.8122 139.742 74.3176 139.538 74.8338C139.323 75.3715 139.161 75.9092 139.064 76.3931C138.516 79.146 139.398 82.071 141.366 84.0282C141.721 84.3831 142.129 84.7164 142.656 85.0821C143.033 85.3294 143.538 85.6305 144.108 85.8563C144.624 86.0929 145.162 86.2327 145.699 86.3618C146.183 86.4478 146.721 86.5016 147.356 86.5016C147.99 86.5016 148.528 86.4585 149.012 86.3618C149.538 86.2327 150.087 86.0929 150.592 85.8563C151.044 85.6735 151.485 85.4369 152.044 85.0821C152.56 84.7272 152.969 84.3938 153.324 84.039C154.894 82.4689 155.786 80.2967 155.786 78.0599C155.786 77.576 155.733 77.0706 155.614 76.4039C155.518 75.9199 155.356 75.3823 155.141 74.8446C154.937 74.3284 154.668 73.823 154.367 73.3928C154.227 73.167 154.055 72.9627 153.883 72.7691H153.948L153.765 72.5648C147.829 65.6179 147.829 55.9181 153.765 48.9605L153.926 48.7562C154.216 48.3905 154.464 48.0464 154.679 47.6808C155.41 46.3903 155.797 44.9278 155.797 43.4546C155.797 40.4543 154.184 37.6584 151.571 36.1528C147.56 33.8408 142.366 35.2173 140.011 39.2284Z" fill="black"/>
<path d="M1.73999 39.2284C0.0193987 42.2609 0.342009 46.0462 2.51425 48.7562H2.47124L2.65405 48.9605C8.59008 55.9073 8.59008 65.6072 2.65405 72.5648L2.47124 72.7691H2.52501C2.35295 72.9627 2.18089 73.1562 2.04109 73.3821C1.73999 73.8122 1.47115 74.3176 1.26683 74.8338C1.05175 75.3715 0.890447 75.9092 0.793664 76.3931C0.245226 79.146 1.12703 82.071 3.09495 84.0282C3.44982 84.3831 3.85846 84.7164 4.38539 85.0821C4.76177 85.3294 5.26719 85.6305 5.83714 85.8563C6.35331 86.0929 6.891 86.2327 7.42868 86.3618C7.90184 86.4478 8.43953 86.4908 9.07399 86.4908C9.70846 86.4908 10.2461 86.4478 10.7301 86.351C11.257 86.222 11.8054 86.0822 12.3109 85.8456C12.7625 85.6628 13.2034 85.4262 13.7626 85.0713C14.2788 84.7164 14.6874 84.3831 15.0423 84.0282C16.6123 82.4582 17.5049 80.2859 17.5049 78.0492C17.5049 77.5653 17.4511 77.0598 17.3328 76.3931C17.236 75.9092 17.0747 75.3715 16.8597 74.8338C16.6553 74.3176 16.3865 73.8122 16.0854 73.3821C15.9456 73.1562 15.7735 72.9519 15.6015 72.7584H15.666L15.4832 72.554C9.54716 65.6072 9.54716 55.9073 15.4832 48.9497L15.6445 48.7454C15.9348 48.3798 16.1822 48.0357 16.3972 47.67C17.1285 46.3796 17.5156 44.9171 17.5156 43.4438C17.5156 40.4436 15.9026 37.6476 13.2894 36.1421C9.27831 33.8408 4.09504 35.2173 1.73999 39.2284Z" fill="black"/>
<path d="M70.8754 4.65532C69.1548 7.68786 69.4774 11.4732 71.6496 14.1831H71.6066L71.7894 14.3874C77.7255 21.3343 77.7255 31.0341 71.7894 37.9917L71.6066 38.196H71.6604C71.4883 38.3896 71.3163 38.5832 71.1765 38.809C70.8754 39.2391 70.6065 39.7446 70.4022 40.2607C70.1871 40.7984 70.0258 41.3361 69.929 41.82C69.3806 44.573 70.2624 47.498 72.2303 49.4551C72.5852 49.81 72.9938 50.1434 73.5208 50.509C73.8971 50.7563 74.4026 51.0574 74.9725 51.2833C75.4887 51.5198 76.0264 51.6596 76.5641 51.7887C77.048 51.8747 77.5857 51.9285 78.2201 51.9285C78.8546 51.9285 79.3923 51.8855 79.8762 51.7887C80.4031 51.6596 80.9516 51.5198 81.457 51.2833C81.9086 51.1005 82.3495 50.8639 82.9087 50.509C83.4249 50.1541 83.8335 49.8208 84.1884 49.4659C85.7584 47.8851 86.6618 45.7021 86.6618 43.4761C86.6618 42.9922 86.608 42.4868 86.4897 41.82C86.3929 41.3361 86.2316 40.7984 86.0165 40.2607C85.8122 39.7446 85.5434 39.2391 85.2423 38.809C85.1025 38.5832 84.9304 38.3789 84.7584 38.1853H84.8229L84.6401 37.981C78.704 31.0341 78.704 21.3343 84.6401 14.3766L84.8014 14.1723C85.0917 13.8067 85.3391 13.4626 85.5541 13.097C86.2746 11.8065 86.6618 10.3548 86.6618 8.88152C86.6618 5.88124 85.0487 3.08529 82.4356 1.57977C78.4137 -0.732268 73.2304 0.654957 70.8754 4.65532Z" fill="black"/>
<path d="M47.8947 70.7044C44.8622 68.9838 41.0769 69.3064 38.367 71.4787V71.4357L38.1627 71.6185C31.2158 77.5545 21.516 77.5545 14.5583 71.6185L14.3648 71.4357V71.4894C14.1712 71.3174 13.9776 71.1453 13.7518 71.0055C13.3217 70.7044 12.8162 70.4356 12.3001 70.2312C11.7624 70.0162 11.2247 69.8549 10.7408 69.7581C7.98784 69.2097 5.06284 70.0915 3.10567 72.0594C2.7508 72.4142 2.41743 72.8229 2.05181 73.3498C1.80448 73.7262 1.50337 74.2316 1.27754 74.8016C1.04096 75.307 0.901166 75.8447 0.772122 76.3823C0.675339 76.8663 0.632324 77.4039 0.632324 78.0384C0.632324 78.6729 0.675339 79.2106 0.772122 79.6945C0.901166 80.2214 1.04096 80.7699 1.27754 81.2753C1.46036 81.7269 1.69694 82.1678 2.05181 82.727C2.40668 83.2432 2.74004 83.6518 3.09492 84.0067C4.66495 85.5875 6.84795 86.4908 9.08471 86.4908C9.56863 86.4908 10.0741 86.437 10.7408 86.3187C11.2247 86.222 11.7624 86.0607 12.3001 85.8456C12.8162 85.6413 13.3217 85.3724 13.7518 85.0713C13.9776 84.9315 14.182 84.7595 14.3755 84.5874V84.6519L14.5798 84.4691C21.5267 78.5331 31.2265 78.5331 38.1842 84.4691L38.3885 84.6304C38.7541 84.9208 39.0982 85.1681 39.4639 85.3832C40.7543 86.1144 42.2168 86.5016 43.69 86.5016C46.6903 86.5016 49.4863 84.8885 50.9918 82.2754C53.2823 78.2427 51.9059 73.0595 47.8947 70.7044Z" fill="black"/>
<path d="M82.4677 70.7044C79.4352 68.9838 75.6499 69.3064 72.94 71.4787V71.4357L72.7357 71.6185C65.7888 77.5545 56.089 77.5545 49.1313 71.6185L48.927 71.4357V71.4894C48.7335 71.3174 48.5399 71.1453 48.3141 71.0055C47.8839 70.7044 47.3785 70.4356 46.8623 70.2312C46.3246 70.0162 45.787 69.8549 45.303 69.7581C42.5501 69.2097 39.6251 70.0915 37.6679 72.0594C37.3131 72.4142 36.9797 72.8229 36.6141 73.3498C36.3667 73.7262 36.0656 74.2316 35.8398 74.8016C35.6032 75.3177 35.4634 75.8554 35.3344 76.3931C35.2483 76.877 35.1946 77.4147 35.1946 78.0492C35.1946 78.6836 35.2376 79.2213 35.3344 79.7052C35.4634 80.2322 35.6032 80.7806 35.8398 81.286C36.0226 81.7377 36.2592 82.1786 36.6141 82.7378C36.9689 83.254 37.3023 83.6626 37.6572 84.0175C39.238 85.5875 41.4102 86.4908 43.647 86.4908C44.1309 86.4908 44.6363 86.437 45.303 86.3187C45.787 86.222 46.3246 86.0607 46.8623 85.8456C47.3785 85.6413 47.8839 85.3724 48.3141 85.0713C48.5399 84.9315 48.7442 84.7595 48.9378 84.5874V84.6519L49.1421 84.4691C56.089 78.5331 65.7888 78.5331 72.7464 84.4691L72.9507 84.6304C73.3164 84.9208 73.6605 85.1681 74.0261 85.3832C75.3165 86.1144 76.779 86.5016 78.2523 86.5016C81.2526 86.5016 84.0485 84.8885 85.5541 82.2754C87.8446 78.2427 86.4681 73.0595 82.4677 70.7044Z" fill="black"/>
<path d="M151.603 70.7044C148.571 68.9838 144.785 69.3064 142.075 71.4787V71.4357L141.871 71.6185C134.924 77.5545 125.224 77.5545 118.267 71.6185L118.063 71.4357V71.4894C117.869 71.3174 117.675 71.1453 117.45 71.0055C117.019 70.7044 116.514 70.4356 115.998 70.2312C115.46 70.0162 114.922 69.8549 114.439 69.7581C111.686 69.2097 108.761 70.0915 106.803 72.0594C106.449 72.4142 106.115 72.8229 105.75 73.3498C105.502 73.7262 105.201 74.2316 104.975 74.8016C104.739 75.3177 104.599 75.8554 104.47 76.3931C104.384 76.877 104.33 77.4147 104.33 78.0492C104.33 78.6836 104.373 79.2213 104.47 79.7052C104.599 80.2322 104.739 80.7806 104.975 81.286C105.158 81.7377 105.395 82.1786 105.75 82.7378C106.104 83.254 106.438 83.6626 106.793 84.0175C108.363 85.5875 110.535 86.4801 112.772 86.4801C113.256 86.4801 113.761 86.4263 114.428 86.308C114.912 86.2112 115.449 86.0499 115.987 85.8348C116.503 85.6305 117.009 85.3617 117.439 85.0606C117.665 84.9208 117.869 84.7487 118.063 84.5767V84.6412L118.267 84.4584C125.214 78.5223 134.914 78.5223 141.871 84.4584L142.075 84.6197C142.441 84.91 142.785 85.1574 143.151 85.3724C144.441 86.1037 145.904 86.4908 147.377 86.4908C150.377 86.4908 153.173 84.8778 154.679 82.2646C156.991 78.2427 155.604 73.0595 151.603 70.7044Z" fill="black"/>
<path d="M117.03 70.7044C113.998 68.9838 110.212 69.3064 107.502 71.4787V71.4357L107.298 71.6185C100.351 77.5545 90.6513 77.5545 83.6937 71.6185L83.5001 71.4357V71.4894C83.3066 71.3174 83.113 71.1453 82.8872 71.0055C82.457 70.7044 81.9516 70.4356 81.4354 70.2312C80.8978 70.0162 80.3601 69.8549 79.8762 69.7581C77.1232 69.2097 74.1982 70.0915 72.241 72.0594C71.8862 72.4142 71.5528 72.8229 71.1872 73.3498C70.9399 73.7262 70.6387 74.2316 70.4129 74.8016C70.1763 75.3177 70.0365 75.8554 69.9075 76.3931C69.8215 76.877 69.7677 77.4147 69.7677 78.0492C69.7677 78.6836 69.8107 79.2213 69.9075 79.7052C70.0365 80.2322 70.1763 80.7806 70.4129 81.286C70.5957 81.7377 70.8323 82.1786 71.1872 82.7378C71.5421 83.254 71.8754 83.6626 72.2303 84.0175C73.8003 85.5875 75.9726 86.4801 78.2093 86.4801C78.6933 86.4801 79.1987 86.4263 79.8654 86.308C80.3493 86.2112 80.887 86.0499 81.4247 85.8348C81.9409 85.6305 82.4463 85.3617 82.8764 85.0606C83.1023 84.9208 83.3066 84.7487 83.5001 84.5767V84.6412L83.7045 84.4584C90.6513 78.5223 100.351 78.5223 107.309 84.4584L107.513 84.6197C107.879 84.91 108.223 85.1574 108.588 85.3724C109.879 86.1037 111.341 86.4908 112.815 86.4908C115.815 86.4908 118.611 84.8778 120.116 82.2646C122.418 78.2427 121.041 73.0595 117.03 70.7044Z" fill="black"/>
<path d="M36.3022 39.2284C34.5817 42.2609 34.9043 46.0462 37.0765 48.7562H37.0335L37.2163 48.9605C43.1523 55.9073 43.1523 65.6072 37.2163 72.5648L37.0335 72.7691H37.0873C36.9152 72.9627 36.7431 73.1562 36.6033 73.3821C36.3022 73.8122 36.0334 74.3176 35.8291 74.8338C35.614 75.3715 35.4527 75.9092 35.3559 76.3931C34.8075 79.146 35.6893 82.071 37.6572 84.0282C38.0121 84.3831 38.4207 84.7164 38.9476 85.0821C39.324 85.3294 39.8294 85.6305 40.3994 85.8563C40.9156 86.0929 41.4533 86.2327 41.9909 86.3618C42.4641 86.4478 43.0125 86.4908 43.647 86.4908C44.2815 86.4908 44.8192 86.4478 45.3031 86.351C45.83 86.222 46.3784 86.0822 46.8839 85.8456C47.3355 85.6628 47.7764 85.4262 48.3356 85.0713C48.8518 84.7164 49.2604 84.3831 49.6153 84.0282C51.1853 82.4582 52.0779 80.2859 52.0779 78.0492C52.0779 77.5653 52.0241 77.0598 51.9058 76.3931C51.809 75.9092 51.6477 75.3715 51.4327 74.8338C51.2283 74.3176 50.9595 73.8122 50.6584 73.3821C50.5186 73.1562 50.3465 72.9519 50.1745 72.7584H50.239L50.0562 72.554C44.1202 65.6072 44.1202 55.9073 50.0562 48.9497L50.2175 48.7454C50.5079 48.3798 50.7552 48.0357 50.9703 47.67C51.7015 46.3796 52.0886 44.9171 52.0886 43.4438C52.0886 40.4436 50.4756 37.6476 47.8624 36.1421C43.8513 33.8408 38.668 35.2173 36.3022 39.2284Z" fill="black"/>
</g>
<defs>
<clipPath id="clip0_91_16">
<rect width="155.165" height="86.0294" fill="white" transform="translate(0.632324 0.461395)"/>
</clipPath>
</defs>
</svg>
