<svg width="150" height="29" viewBox="0 0 150 29" fill="none" xmlns="http://www.w3.org/2000/svg">
<g clip-path="url(#clip0_141_148)">
<path d="M62.9084 28.81H53.3888C49.973 28.81 47.2748 27.34 45.3042 24.4C43.5255 21.76 42.6362 18.5 42.6362 14.64C42.6362 10.71 43.5458 7.36 45.3547 4.6C47.3556 1.53 50.0337 0 53.3888 0H62.9084C66.2635 0 68.9416 1.53 70.9425 4.6C72.7514 7.37 73.661 10.72 73.661 14.67C73.661 18.54 72.7818 21.78 71.0132 24.41C69.0426 27.34 66.3444 28.81 62.9084 28.81ZM61.8372 22.56C63.3632 22.56 64.586 21.68 65.5056 19.92C66.3444 18.32 66.7688 16.39 66.7688 14.12C66.7688 11.92 66.3646 10.07 65.5561 8.58C64.6466 6.91 63.4137 6.08 61.8372 6.08H54.4701C52.8936 6.08 51.6607 6.91 50.7512 8.58C49.9427 10.07 49.5385 11.92 49.5385 14.12C49.5385 16.4 49.9528 18.33 50.7815 19.92C51.7011 21.68 52.934 22.56 54.4802 22.56H61.8372Z" fill="black"/>
<path d="M93.539 0H73.6609V6.09H80.4116V28.81H86.7782V6.09H93.539V0Z" fill="black"/>
<path d="M108.091 6.09H117.358V0H108.091C100.067 0 93.5289 6.46 93.5289 14.41C93.5289 22.35 100.057 28.82 108.091 28.82H117.358V22.73H108.091C104.544 22.73 101.502 20.54 100.28 17.46H117.358V11.37H100.28C101.512 8.28 104.544 6.09 108.091 6.09Z" fill="black"/>
<path d="M150 0H142.461L135.822 10.85C135.397 11.54 134.397 11.54 133.972 10.85L127.333 0H119.794L128.616 14.41L119.794 28.82H127.333L133.972 17.97C134.397 17.28 135.397 17.28 135.822 17.97L142.461 28.82H150L141.178 14.41L150 0Z" fill="black"/>
<path d="M10.1664 12.93C10.0653 12.86 9.95417 12.81 9.85312 12.77C9.74195 12.72 9.62068 12.69 9.51963 12.67C8.93349 12.56 8.30693 12.74 7.8926 13.15C7.55911 13.48 7.3671 13.94 7.3671 14.41C7.3671 14.51 7.3772 14.6 7.38731 14.68L7.39741 14.73C7.75112 16.6 6.73043 18.37 4.9215 19.02C4.91139 19.02 4.91139 19.02 4.90129 19.03C4.90129 19.03 4.89118 19.03 4.88108 19.04L4.84065 19.05C4.7396 19.09 4.65875 19.13 4.5779 19.17C3.72902 19.67 3.43595 20.76 3.92103 21.61C4.24441 22.16 4.84065 22.5 5.47732 22.5C5.7906 22.5 6.10387 22.42 6.37673 22.26C7.0235 21.89 7.3671 21.16 7.24583 20.44L7.25593 20.45L7.24583 20.4C6.89213 18.51 7.92291 16.73 9.76217 16.09L9.8228 16.07H9.81269C9.8228 16.07 9.83291 16.06 9.84301 16.06C9.94407 16.02 10.0552 15.96 10.1563 15.9C10.2371 15.84 10.3281 15.77 10.4291 15.68C10.51 15.59 10.5807 15.5 10.6515 15.41C10.7222 15.31 10.7727 15.2 10.8132 15.1C10.8637 14.98 10.894 14.87 10.9142 14.77C10.9344 14.64 10.9546 14.53 10.9546 14.42C10.9546 13.96 10.7626 13.5 10.4291 13.16C10.3382 13.06 10.2472 12.98 10.1664 12.93Z" fill="black"/>
<path d="M9.16595 3.55999C9.26701 3.55999 9.37818 3.54999 9.51966 3.51999C9.62071 3.49999 9.73188 3.46999 9.85315 3.41999C9.9542 3.37999 10.0654 3.31999 10.1664 3.25999C10.2473 3.19999 10.3382 3.12999 10.4393 3.03999C10.7728 2.69999 10.9648 2.23999 10.9648 1.77999C10.9648 1.66999 10.9547 1.55999 10.9244 1.42999C10.9041 1.31999 10.8738 1.20999 10.8233 1.08999C10.7829 0.989993 10.7222 0.889993 10.6515 0.779993C10.5808 0.689993 10.51 0.599993 10.4292 0.509993C10.3281 0.419993 10.2372 0.349993 10.1563 0.289993C10.0553 0.219993 9.9441 0.169993 9.84304 0.129993C9.73188 0.0899927 9.62071 0.0499927 9.50955 0.0299927C9.26701 -0.0200073 9.03458 -0.0200073 8.80215 0.0299927C8.70109 0.0599927 8.58993 0.0899927 8.47876 0.139993C8.3777 0.169993 8.28675 0.229993 8.16548 0.299993C8.06442 0.359993 7.98358 0.429993 7.89263 0.519993C7.80167 0.619993 7.73093 0.709993 7.6703 0.789993C7.58945 0.909993 7.53892 0.999993 7.4985 1.09999C7.44797 1.21999 7.41766 1.32999 7.39744 1.42999C7.37723 1.52999 7.36713 1.63999 7.36713 1.77999C7.36713 2.24999 7.55914 2.70999 7.89263 3.03999C8.23622 3.36999 8.69098 3.55999 9.16595 3.55999Z" fill="black"/>
<path d="M15.8863 3.43998L15.9368 3.45998C17.7558 4.09998 18.7967 5.85998 18.4632 7.73998V7.74998L18.4531 7.80998C18.4329 7.90998 18.4329 7.99998 18.4329 8.08998C18.4329 8.55998 18.6249 9.01998 18.9584 9.34998C19.302 9.67998 19.7669 9.86998 20.2317 9.86998C20.6966 9.86998 21.1716 9.67998 21.495 9.34998C21.8386 9.00998 22.0306 8.55998 22.0306 8.08998C22.0306 7.61998 21.8386 7.15998 21.495 6.82998C21.3333 6.65998 21.121 6.53998 20.8684 6.44998L20.8785 6.43998L20.8179 6.42998C19.9387 6.11998 19.2009 5.51998 18.7462 4.73998C18.2914 3.95998 18.1297 3.01998 18.3015 2.10998L18.3116 2.05998C18.3318 1.95998 18.3318 1.86998 18.3318 1.78998C18.3318 0.809979 17.5234 0.00997925 16.533 0.00997925C15.5427 0.00997925 14.7342 0.809979 14.7342 1.78998C14.7342 2.50998 15.189 3.16998 15.8863 3.43998Z" fill="black"/>
<path d="M22.8896 3.26001C23.0008 3.33001 23.1018 3.38001 23.2029 3.42001C23.3343 3.47001 23.4353 3.50001 23.5364 3.52001C23.6779 3.54001 23.789 3.56001 23.8901 3.56001C24.365 3.56001 24.8299 3.37001 25.1634 3.04001C25.4969 2.71001 25.6889 2.25001 25.6889 1.78001C25.6889 1.64001 25.6788 1.53001 25.6485 1.43001C25.6283 1.31001 25.5878 1.20001 25.5474 1.10001C25.5171 1.00001 25.4666 0.910007 25.3958 0.790007C25.315 0.680007 25.2442 0.590006 25.1735 0.520006C24.7592 0.110006 24.1326 -0.0799935 23.5465 0.0400065C23.4454 0.0600065 23.3444 0.0900065 23.213 0.140006C23.1119 0.180007 23.0008 0.240007 22.8997 0.300007C22.8189 0.360007 22.7279 0.430006 22.6269 0.520006C22.546 0.600006 22.4753 0.690006 22.4146 0.780006L22.4045 0.790007C22.3338 0.900007 22.2833 1.00001 22.2327 1.10001C22.1923 1.20001 22.1519 1.31001 22.1317 1.43001C22.1115 1.56001 22.0912 1.67001 22.0912 1.78001C22.0912 2.24001 22.2833 2.70001 22.6167 3.04001C22.7279 3.14001 22.8088 3.21001 22.8896 3.26001Z" fill="black"/>
<path d="M26.6793 6.54999C26.0325 6.91999 25.6889 7.63999 25.8001 8.36999H25.79L25.8001 8.42999C25.9719 9.33999 25.8102 10.27 25.3554 11.06C24.9007 11.84 24.1629 12.44 23.2837 12.75L23.2231 12.77H23.2433C23.0008 12.86 22.7885 12.98 22.6167 13.15C22.2833 13.49 22.0912 13.95 22.0912 14.41C22.0912 14.87 22.2833 15.33 22.6167 15.67C22.9603 16 23.4252 16.19 23.8901 16.19C24.3549 16.19 24.8198 16 25.1634 15.67C25.4969 15.34 25.6889 14.88 25.6889 14.41C25.6889 14.33 25.6788 14.24 25.6687 14.14L25.6586 14.09V14.08V14.07V14.06C25.3251 12.18 26.3559 10.42 28.185 9.77999L28.2356 9.75999H28.2255C28.3164 9.71999 28.4074 9.68999 28.4781 9.63999C28.8924 9.39999 29.1956 9.01999 29.3169 8.55999C29.4381 8.09999 29.3775 7.61999 29.135 7.20999C28.6398 6.35999 27.5383 6.05999 26.6793 6.54999Z" fill="black"/>
<path d="M32.5305 13.15C31.8635 12.49 30.6508 12.49 29.9939 13.15C29.6605 13.48 29.4684 13.94 29.4684 14.41C29.4684 14.88 29.6605 15.34 29.9939 15.67C30.3274 16 30.7923 16.19 31.2572 16.19C31.7321 16.19 32.197 16 32.5305 15.67C32.864 15.34 33.056 14.88 33.056 14.41C33.056 13.94 32.864 13.48 32.5305 13.15Z" fill="black"/>
<path d="M28.4781 19.18C27.8313 18.82 27.0228 18.89 26.4468 19.34V19.33L26.4064 19.37C24.9309 20.62 22.8593 20.62 21.3838 19.37L21.3434 19.33V19.34C21.303 19.3 21.2625 19.27 21.212 19.24C21.1211 19.18 21.0099 19.12 20.8987 19.08C20.7876 19.03 20.6663 19 20.5653 18.98C19.9791 18.86 19.3526 19.05 18.9382 19.46C18.8675 19.53 18.7967 19.62 18.7159 19.73C18.6654 19.81 18.5946 19.92 18.5542 20.03C18.5037 20.14 18.4734 20.25 18.443 20.37C18.4228 20.47 18.4127 20.59 18.4127 20.72C18.4127 20.85 18.4228 20.97 18.443 21.07C18.4734 21.18 18.5037 21.3 18.5542 21.4C18.5946 21.49 18.6452 21.59 18.7159 21.71C18.7866 21.82 18.8675 21.91 18.9382 21.98C19.2717 22.31 19.7366 22.5 20.2115 22.5C20.3126 22.5 20.4238 22.49 20.5653 22.46C20.6663 22.44 20.7876 22.41 20.8987 22.36C21.0099 22.32 21.111 22.26 21.212 22.2C21.2625 22.17 21.303 22.13 21.3434 22.1V22.11L21.3838 22.07C22.8593 20.82 24.9309 20.82 26.4064 22.07L26.4468 22.1C26.5277 22.16 26.5984 22.21 26.6792 22.26C26.9521 22.41 27.2654 22.49 27.5787 22.49C28.2153 22.49 28.8116 22.15 29.1349 21.6C29.6301 20.77 29.3371 19.67 28.4781 19.18Z" fill="black"/>
<path d="M25.5575 26.35C25.5171 26.26 25.4665 26.16 25.3958 26.04C25.315 25.93 25.2442 25.84 25.1735 25.77C25.0825 25.68 24.9916 25.61 24.9006 25.55C24.7895 25.48 24.6884 25.42 24.5873 25.39C24.4762 25.34 24.3549 25.31 24.2538 25.29C23.6677 25.18 23.0513 25.36 22.6369 25.77C22.546 25.86 22.4752 25.95 22.4045 26.04C22.3338 26.14 22.2832 26.25 22.2428 26.35C22.1923 26.46 22.162 26.58 22.1417 26.68C22.1215 26.81 22.1013 26.92 22.1013 27.03C22.1013 27.13 22.1114 27.25 22.1417 27.38C22.162 27.49 22.1923 27.6 22.2428 27.72C22.2933 27.83 22.3439 27.93 22.4045 28.03C22.4752 28.13 22.546 28.22 22.6369 28.3C22.9704 28.63 23.4353 28.82 23.9001 28.82C24.0113 28.82 24.1225 28.81 24.2538 28.78C24.3549 28.76 24.4762 28.73 24.5873 28.68C24.6783 28.64 24.7793 28.59 24.9006 28.52C24.9916 28.46 25.0825 28.39 25.1735 28.3C25.2644 28.21 25.3352 28.12 25.3958 28.03C25.4766 27.91 25.5272 27.82 25.5575 27.72C25.608 27.6 25.6383 27.49 25.6585 27.39C25.6788 27.26 25.699 27.15 25.699 27.04C25.699 26.93 25.6889 26.82 25.6585 26.69C25.6383 26.57 25.5979 26.45 25.5575 26.35Z" fill="black"/>
<path d="M17.1798 25.38L17.1293 25.36C15.29 24.72 14.2592 22.94 14.6129 21.05V21.02C14.6332 20.93 14.6332 20.84 14.6332 20.73C14.6332 20.59 14.623 20.48 14.5927 20.38C14.5725 20.27 14.5422 20.16 14.4917 20.05C14.4512 19.96 14.4007 19.86 14.33 19.74C14.2491 19.63 14.1784 19.54 14.1077 19.47C14.0167 19.38 13.9257 19.31 13.8348 19.25C13.7438 19.19 13.6327 19.13 13.5215 19.09C13.4002 19.04 13.2891 19.01 13.188 18.99C12.9556 18.94 12.7232 18.94 12.4806 18.99C12.3796 19.01 12.2684 19.04 12.1471 19.09C12.036 19.13 11.9248 19.19 11.8339 19.25C11.7429 19.31 11.6418 19.38 11.561 19.47C11.4903 19.54 11.4195 19.63 11.3387 19.74C11.2881 19.82 11.2174 19.93 11.177 20.04C11.1264 20.15 11.0961 20.26 11.0658 20.38C11.0456 20.51 11.0254 20.62 11.0254 20.73C11.0254 20.84 11.0355 20.95 11.0658 21.08C11.0961 21.19 11.1264 21.31 11.177 21.41C11.2174 21.5 11.2679 21.6 11.3387 21.72C11.4195 21.83 11.4903 21.92 11.561 21.99C11.6519 22.08 11.7429 22.15 11.8339 22.21C11.9248 22.27 12.036 22.33 12.1471 22.37C12.1572 22.37 12.1673 22.38 12.1774 22.38L12.2381 22.4C14.0773 23.04 15.1081 24.82 14.7544 26.71L14.7443 26.77C14.7241 26.87 14.7241 26.96 14.7241 27.04C14.7241 28.02 15.5326 28.82 16.5229 28.82C17.5133 28.82 18.3218 28.02 18.3218 27.04C18.3319 26.3 17.867 25.65 17.1798 25.38Z" fill="black"/>
<path d="M10.8233 26.35C10.7727 26.25 10.7222 26.15 10.6515 26.04C10.5807 25.95 10.51 25.86 10.419 25.77C10.1058 25.46 9.6409 25.27 9.15582 25.27C8.67075 25.27 8.20588 25.45 7.88249 25.77C7.81175 25.84 7.74101 25.93 7.66017 26.04C7.57932 26.16 7.52879 26.25 7.49848 26.35C7.45805 26.45 7.41763 26.56 7.39742 26.68C7.37721 26.78 7.35699 26.89 7.35699 27.03C7.35699 27.17 7.3671 27.28 7.39742 27.38C7.41763 27.49 7.44795 27.6 7.49848 27.71C7.5389 27.8 7.58943 27.9 7.66017 28.02C7.7208 28.12 7.79154 28.2 7.88249 28.29C8.22609 28.62 8.69096 28.81 9.15582 28.81C9.63079 28.81 10.0856 28.62 10.419 28.29C10.4999 28.21 10.5807 28.12 10.6515 28.02C10.7222 27.92 10.7727 27.81 10.8132 27.71C10.8637 27.59 10.894 27.48 10.9142 27.38C10.9344 27.25 10.9547 27.14 10.9547 27.03C10.9547 26.92 10.9445 26.81 10.9142 26.68C10.9041 26.58 10.8738 26.47 10.8233 26.35Z" fill="black"/>
<path d="M3.45617 13.72C3.41575 13.63 3.36522 13.53 3.29448 13.41C3.21364 13.3 3.1429 13.21 3.07216 13.14C2.65782 12.73 2.04137 12.54 1.45523 12.66C1.34407 12.68 1.2329 12.71 1.12174 12.76C1.01058 12.8 0.899414 12.86 0.808462 12.92C0.71751 12.98 0.626558 13.05 0.535606 13.14C0.464866 13.21 0.394125 13.3 0.313279 13.41C0.232433 13.53 0.181904 13.62 0.151587 13.72C0.101058 13.83 0.0707404 13.94 0.0404231 14.06C0.0101058 14.16 0 14.28 0 14.41C0 14.88 0.19201 15.34 0.5255 15.67C0.616452 15.76 0.707404 15.83 0.798356 15.89C0.889308 15.95 1.00047 16.01 1.11164 16.05C1.2329 16.1 1.34407 16.13 1.44513 16.15C1.5765 16.17 1.68766 16.19 1.79883 16.19C2.26369 16.19 2.73866 16 3.06205 15.67C3.39554 15.34 3.59766 14.88 3.59766 14.41C3.59766 14.31 3.58755 14.19 3.55723 14.06C3.53702 13.95 3.5067 13.83 3.45617 13.72Z" fill="black"/>
<path d="M4.57793 9.64C4.85079 9.79 5.16407 9.88 5.47735 9.88C5.88158 9.88 6.2757 9.74 6.60919 9.47V9.49L6.64962 9.45C8.12506 8.2 10.1967 8.2 11.6722 9.45L11.7126 9.49V9.47C11.753 9.51 11.7935 9.54 11.844 9.57C11.9349 9.63 12.0461 9.69 12.1573 9.73C12.2684 9.77 12.3897 9.81 12.4908 9.83C12.6322 9.85 12.7434 9.87 12.8445 9.87C13.3194 9.87 13.7843 9.68 14.1178 9.35C14.4513 9.02 14.6433 8.56 14.6433 8.09C14.6433 7.95 14.6332 7.84 14.6029 7.74C14.5827 7.63 14.5523 7.52 14.5018 7.41C14.4614 7.32 14.4109 7.22 14.3401 7.1C14.2593 6.99 14.1885 6.9 14.1178 6.83C13.7034 6.42 13.0769 6.23 12.4908 6.35C12.3897 6.37 12.2785 6.4 12.1573 6.45C12.0461 6.49 11.9349 6.55 11.844 6.61C11.7935 6.64 11.753 6.68 11.7126 6.71L11.6722 6.75C10.1967 8 8.12506 8 6.64962 6.75L6.60919 6.71V6.72C6.52835 6.65 6.45761 6.6 6.37676 6.56C5.96243 6.32 5.47735 6.25 5.01248 6.38C4.54762 6.5 4.1636 6.79 3.92106 7.21C3.42588 8.06 3.71894 9.15 4.57793 9.64Z" fill="black"/>
</g>
<defs>
<clipPath id="clip0_141_148">
<rect width="150" height="28.81" fill="white"/>
</clipPath>
</defs>
</svg>
