<svg width="53" height="19" viewBox="0 0 53 19" fill="none" xmlns="http://www.w3.org/2000/svg">
<g clip-path="url(#clip0_92_125)">
<path d="M48.1956 2.00243C45.12 0.260333 41.2702 0.582943 38.528 2.78745V2.74443L38.3129 2.92724C31.2585 8.9493 21.4082 8.96006 14.343 2.92724L14.1279 2.74443V2.7982C13.9344 2.62614 13.73 2.45408 13.5042 2.30353C13.0633 2.00243 12.5579 1.72283 12.0202 1.50776C11.4825 1.30344 10.9341 1.13138 10.4502 1.0346C7.65421 0.475407 4.6862 1.37872 2.69677 3.36815C2.33114 3.73377 1.99778 4.14241 1.63215 4.68009C1.38482 5.06723 1.07296 5.57265 0.847136 6.14259C0.610556 6.65877 0.470758 7.21796 0.33096 7.75564C0.234177 8.25031 0.191162 8.79875 0.191162 9.44397C0.191162 10.0892 0.234177 10.6376 0.33096 11.1323C0.460004 11.67 0.599802 12.2292 0.847136 12.7346C1.02995 13.1863 1.27728 13.6487 1.64291 14.2079C2.00853 14.7348 2.3419 15.1542 2.70752 15.509C4.29907 17.1006 6.51432 18.0147 8.78335 18.0147C9.27802 18.0147 9.7942 17.9609 10.4609 17.8426C10.9556 17.7458 11.4933 17.5845 12.0417 17.3587C12.5686 17.1544 13.0741 16.8748 13.515 16.5629C13.7408 16.4124 13.9451 16.2403 14.1494 16.0682V16.1328L14.3645 15.9499C21.4189 9.91713 31.2693 9.91713 38.3345 15.9499L38.5495 16.1113C38.9151 16.4124 39.27 16.6597 39.6357 16.8748C40.9476 17.6168 42.4316 18.0039 43.9264 18.0039C46.9804 18.0039 49.8194 16.3586 51.3357 13.7132C53.6584 9.65905 52.2605 4.38974 48.1956 2.00243Z" fill="black"/>
</g>
<defs>
<clipPath id="clip0_92_125">
<rect width="52.2629" height="17.1521" fill="white" transform="translate(0.191162 0.873169)"/>
</clipPath>
</defs>
</svg>
