<svg width="72" height="64" viewBox="0 0 72 64" fill="none" xmlns="http://www.w3.org/2000/svg">
<path d="M38.5277 10.3032V13.5903L42.9314 15.1175C43.9699 15.6137 44.6179 16.668 44.6023 17.8076V18.8154H27.4014V17.8076C27.3858 16.668 28.0338 15.6292 29.0645 15.1253L33.476 13.598V10.3032" stroke="black" stroke-width="1.7" stroke-miterlimit="10"/>
<path d="M35.998 11.0627C38.7966 11.0627 41.0654 8.8101 41.0654 6.03135C41.0654 3.25261 38.7966 1 35.998 1C33.1994 1 30.9307 3.25261 30.9307 6.03135C30.9307 8.8101 33.1994 11.0627 35.998 11.0627Z" fill="black" stroke="black" stroke-width="1.7" stroke-miterlimit="10"/>
<path d="M38.5277 54.5076V57.7947L42.9314 59.3219C43.9699 59.8181 44.6179 60.8724 44.6023 62.012V63.0198H27.4014V62.012C27.3858 60.8724 28.0338 59.8336 29.0645 59.3297L33.476 57.8024V54.5076" stroke="black" stroke-width="1.7" stroke-miterlimit="10"/>
<path d="M64.8326 54.5076V57.7947L69.2363 59.3219C70.2748 59.8181 70.9228 60.8724 70.9072 62.012V63.0198H53.7063V62.012C53.6907 60.8724 54.3388 59.8336 55.3694 59.3297L59.7809 57.8024V54.5076" stroke="black" stroke-width="1.7" stroke-miterlimit="10"/>
<path d="M12.2228 54.5076V57.7947L16.6265 59.3219C17.6649 59.8181 18.313 60.8724 18.2973 62.012V63.0198H1.09647V62.012C1.08085 60.8724 1.72891 59.8336 2.75956 59.3297L7.17102 57.8024V54.5076" stroke="black" stroke-width="1.7" stroke-miterlimit="10"/>
<path d="M51.684 32.4053V35.6923L56.0877 37.2196C57.1261 37.7157 57.7742 38.7701 57.7586 39.9097V40.9175H40.5576V39.9097C40.542 38.7701 41.1901 37.7312 42.2207 37.2273L46.6322 35.7001V32.4053" stroke="black" stroke-width="1.7" stroke-miterlimit="10"/>
<path d="M25.3715 32.4053V35.6923L29.7751 37.2196C30.8136 37.7157 31.4616 38.7701 31.446 39.9097V40.9175H14.2451V39.9097C14.2295 38.7701 14.8775 37.7312 15.9082 37.2273L20.3197 35.7001V32.4053" stroke="black" stroke-width="1.7" stroke-miterlimit="10"/>
<path d="M23.3491 47.9804V58.0276" stroke="black" stroke-width="1.7" stroke-miterlimit="10"/>
<path d="M18.2893 53.0033H28.4084" stroke="black" stroke-width="1.7" stroke-miterlimit="10"/>
<path d="M48.6465 47.9804V58.0276" stroke="black" stroke-width="1.7" stroke-miterlimit="10"/>
<path d="M43.5876 53.0033H53.7068" stroke="black" stroke-width="1.7" stroke-miterlimit="10"/>
<path d="M36.5054 25.8781V35.9253" stroke="black" stroke-width="1.7" stroke-miterlimit="10"/>
<path d="M31.446 30.9013H41.5652" stroke="black" stroke-width="1.7" stroke-miterlimit="10"/>
<path d="M22.8413 33.1648C25.6399 33.1648 27.9087 30.9121 27.9087 28.1334C27.9087 25.3547 25.6399 23.1021 22.8413 23.1021C20.0426 23.1021 17.7739 25.3547 17.7739 28.1334C17.7739 30.9121 20.0426 33.1648 22.8413 33.1648Z" fill="black" stroke="black" stroke-width="1.7" stroke-miterlimit="10"/>
<path d="M49.154 33.1648C51.9526 33.1648 54.2214 30.9121 54.2214 28.1334C54.2214 25.3547 51.9526 23.1021 49.154 23.1021C46.3554 23.1021 44.0867 25.3547 44.0867 28.1334C44.0867 30.9121 46.3554 33.1648 49.154 33.1648Z" fill="black" stroke="black" stroke-width="1.7" stroke-miterlimit="10"/>
<path d="M35.9746 55.2677C38.7732 55.2677 41.0419 53.015 41.0419 50.2363C41.0419 47.4576 38.7732 45.2049 35.9746 45.2049C33.176 45.2049 30.9072 47.4576 30.9072 50.2363C30.9072 53.015 33.176 55.2677 35.9746 55.2677Z" fill="black" stroke="black" stroke-width="1.7" stroke-miterlimit="10"/>
<path d="M9.71627 55.2677C12.5149 55.2677 14.7836 53.015 14.7836 50.2363C14.7836 47.4576 12.5149 45.2049 9.71627 45.2049C6.91765 45.2049 4.64893 47.4576 4.64893 50.2363C4.64893 53.015 6.91765 55.2677 9.71627 55.2677Z" fill="black" stroke="black" stroke-width="1.7" stroke-miterlimit="10"/>
<path d="M62.3106 55.2677C65.1092 55.2677 67.3779 53.015 67.3779 50.2363C67.3779 47.4576 65.1092 45.2049 62.3106 45.2049C59.5119 45.2049 57.2432 47.4576 57.2432 50.2363C57.2432 53.015 59.5119 55.2677 62.3106 55.2677Z" fill="black" stroke="black" stroke-width="1.7" stroke-miterlimit="10"/>
</svg>
