<svg width="65" height="64" viewBox="0 0 65 64" fill="none" xmlns="http://www.w3.org/2000/svg">
<path d="M27.0044 52.3059C41.2735 52.3059 52.8409 40.8207 52.8409 26.653C52.8409 12.4853 41.2735 1.00005 27.0044 1.00005C12.7354 1.00005 1.16797 12.4853 1.16797 26.653C1.16797 40.8207 12.7354 52.3059 27.0044 52.3059Z" stroke="black" stroke-width="1.7" stroke-miterlimit="10"/>
<path d="M45.2749 44.786L63.6392 63.0199" stroke="black" stroke-width="1.7" stroke-miterlimit="10"/>
<path d="M28.2771 9.21032V12.4741C32.142 12.8927 35.7727 15.2805 36.2646 20.1025H32.673C32.3685 16.955 30.2994 15.8542 28.2771 15.4356V24.5835L28.4645 24.6222C32.0952 25.537 36.5301 27.2038 36.5301 32.6693C36.5301 37.7162 32.9775 40.5613 28.2693 40.8714V44.0965H26.169V40.8327C21.125 40.414 17.5256 36.8479 17.4163 31.6847H21.0079C21.2734 35.3672 23.1082 37.4138 26.169 37.8712V27.6922L24.9041 27.3511C21.656 26.5526 18.2127 24.1261 18.2127 19.87C18.2127 15.0092 22.1869 12.7299 26.1612 12.4276V9.20256H28.2771V9.21032ZM25.7083 23.9323L26.169 24.0486V15.358C24.3341 15.5441 21.8121 16.4589 21.8121 19.6064C21.8121 22.0407 23.4596 23.3663 25.7083 23.9323ZM28.2771 28.2271V37.91C31.2988 37.6076 32.9775 35.5532 32.9775 33.0104C32.9775 30.2738 31.0255 28.9481 28.2771 28.2271Z" fill="black"/>
</svg>
