<svg width="87" height="55" viewBox="0 0 87 55" fill="none" xmlns="http://www.w3.org/2000/svg">
<path d="M59.8975 15.606L37.6683 8.16366C35.5601 7.46594 33.2099 7.62099 31.2033 8.5978L30.0946 9.14047C28.5877 9.88471 26.8152 10.001 25.2302 9.44282L23.3251 8.77611C23.2314 8.72184 23.1455 8.66757 23.0518 8.63656L11.6756 4.88437C11.4023 4.79909 11.0979 4.81459 10.848 4.94639C10.5982 5.07042 10.4029 5.28749 10.317 5.55883L0.978765 33.2429C0.783567 33.7933 1.09587 34.398 1.65024 34.5918L13.042 38.3828C13.1669 38.4371 13.2763 38.4526 13.4012 38.4526C13.5652 38.4526 13.7213 38.4138 13.8697 38.344C14.1195 38.22 14.3147 38.0029 14.4006 37.7316L23.3875 11.1018L24.5431 11.505C26.6668 12.2415 29.0561 12.0787 31.0783 11.0863L32.1871 10.5437C33.6706 9.79943 35.4274 9.68315 36.9968 10.2103L58.3984 17.3736C58.2422 18.3039 57.805 19.8389 56.6416 20.6451C55.6031 21.3661 54.0962 21.4126 52.191 20.7692L42.8528 17.6759C42.5639 17.5907 42.2594 17.6062 41.9939 17.7535C41.7284 17.9008 41.5488 18.1488 41.4629 18.4357C41.4473 18.49 40.0965 23.5601 35.8022 25.8781C33.085 27.3588 29.7042 27.4363 25.769 26.1261C25.2146 25.9323 24.6056 26.2424 24.4104 26.7929C24.2152 27.3433 24.5275 27.948 25.0819 28.1418C27.19 28.8395 29.181 29.1806 31.0315 29.1729C33.1475 29.1574 35.0838 28.6845 36.8406 27.7232C40.6665 25.6455 42.4935 21.8855 43.1806 20.0327L51.4805 22.7926C54.0883 23.6686 56.2277 23.5291 57.8674 22.3895C60.5143 20.5521 60.608 16.8077 60.6315 16.6449C60.6393 16.172 60.3347 15.7456 59.8975 15.606ZM12.7297 36.0105L3.36795 32.9018L12.0192 7.25662L21.1232 10.2801C21.1935 10.3188 21.2638 10.3499 21.3418 10.3886L21.3809 10.4041L12.7297 36.0105Z" fill="black"/>
<path d="M86.6632 25.359L74.1861 0.62864C74.069 0.396066 73.8582 0.210006 73.6005 0.124728C73.3428 0.0394513 73.0539 0.0627092 72.8197 0.178996L62.6147 5.22586C62.1072 5.48169 61.9042 6.07863 62.1462 6.58254L74.2485 30.6927L70.2665 34.3597C66.9013 37.4762 63.0832 40.0965 58.9528 42.1354L39.4095 51.795C38.8629 52.0663 38.2539 52.1051 37.6762 51.9113C37.0984 51.7097 36.6298 51.3066 36.3566 50.7716C36.0833 50.2367 36.0443 49.6243 36.2395 49.0428C36.4425 48.4692 36.8485 48.004 37.3873 47.7327L48.3027 42.3292C48.8103 42.0734 49.0133 41.4764 48.7712 40.9725C48.5135 40.4686 47.8967 40.267 47.4048 40.5074L36.7236 45.7946L31.3439 48.4537C30.2196 49.0041 28.8375 48.5544 28.2832 47.4458C27.7288 46.3295 28.1817 44.9728 29.2982 44.4069L44.9844 36.6466C45.4919 36.3908 45.6949 35.7939 45.4528 35.29C45.1952 34.786 44.5783 34.5845 44.0864 34.8248L32.4682 40.5771L28.3925 42.585L26.4718 43.5308C25.3474 44.0813 23.9654 43.6316 23.411 42.523C22.8567 41.4067 23.3096 40.0345 24.4261 39.484L26.3625 38.5227L40.4089 31.5688C40.9164 31.3129 41.1194 30.716 40.8774 30.2121C40.6197 29.7082 40.0029 29.5066 39.511 29.7469L30.4928 34.2124L25.4645 36.7009C24.918 36.9722 24.309 37.011 23.7234 36.8172C23.1456 36.6156 22.6771 36.2125 22.4038 35.6776C22.1305 35.1349 22.0915 34.5302 22.2867 33.9488C22.4897 33.3751 22.8957 32.9099 23.4345 32.6386L30.891 28.9484C31.3985 28.6926 31.6016 28.0957 31.3596 27.5917C31.1019 27.0878 30.4851 26.8863 29.9932 27.1266L22.5365 30.8168C21.4981 31.3284 20.7251 32.22 20.3581 33.3053C19.9911 34.3907 20.0692 35.5613 20.5846 36.5846C20.9828 37.3909 21.6308 38.0343 22.4194 38.453C21.1311 39.7321 20.7564 41.7168 21.5996 43.399C22.357 44.9185 23.903 45.7868 25.5036 45.7713C25.691 45.7713 25.8784 45.748 26.0657 45.7325C25.933 46.5776 26.0423 47.4768 26.4561 48.3219C27.2135 49.8414 28.7595 50.7096 30.3601 50.6941C30.9926 50.6864 31.6406 50.5468 32.2496 50.2445L34.1001 49.3142C34.022 50.1127 34.1626 50.9034 34.5452 51.6322C35.0605 52.6632 35.9584 53.4307 37.0515 53.7951C37.5121 53.9424 37.9885 54.0277 38.4648 54.0199C39.1128 54.0122 39.7608 53.8571 40.3542 53.5703L59.8975 43.9107C64.2075 41.7788 68.1583 39.0499 71.6797 35.7939L76.099 31.7006L86.1713 26.7235C86.7022 26.4599 86.9052 25.8629 86.6632 25.359ZM75.9585 29.5609L64.4262 6.58254L72.8119 2.44272L84.3208 25.4211L75.9585 29.5609Z" fill="black"/>
</svg>
