<svg width="76" height="63" viewBox="0 0 76 63" fill="none" xmlns="http://www.w3.org/2000/svg">
<path d="M48.4453 23.4284L62.2263 5.26439" stroke="black" stroke-width="1.7" stroke-miterlimit="10"/>
<path d="M31.7908 20.1486L43.7681 24.7535" stroke="black" stroke-width="1.7" stroke-miterlimit="10"/>
<path d="M13.6609 31.0563L26.5362 20.9394" stroke="black" stroke-width="1.7" stroke-miterlimit="10"/>
<path d="M14.3246 32.9406C14.3324 34.6229 12.966 35.9873 11.2716 35.995C9.57731 36.0028 8.20315 34.6461 8.19535 32.9638C8.18754 31.2815 9.55395 29.9171 11.2483 29.9094C11.2561 29.9094 11.256 29.9094 11.2638 29.9094C12.9503 29.9094 14.3168 31.2583 14.3246 32.9406Z" fill="black"/>
<path d="M32.0018 19.04C32.0096 20.7223 30.6432 22.0867 28.9489 22.0945C27.2546 22.1022 25.8804 20.7456 25.8726 19.0633C25.8648 17.381 27.2311 16.0165 28.9254 16.0088C28.9332 16.0088 28.9333 16.0088 28.9411 16.0088C30.6276 16.001 32.0018 17.35 32.0018 19.0245C32.0018 19.0323 32.0018 19.0323 32.0018 19.04Z" fill="black"/>
<path d="M46.6105 28.8782C48.2966 28.8782 49.6635 27.5211 49.6635 25.847C49.6635 24.1729 48.2966 22.8158 46.6105 22.8158C44.9245 22.8158 43.5576 24.1729 43.5576 25.847C43.5576 27.5211 44.9245 28.8782 46.6105 28.8782Z" fill="black"/>
<path d="M64.28 6.06243C65.9661 6.06243 67.3329 4.70531 67.3329 3.03122C67.3329 1.35712 65.9661 0 64.28 0C62.5939 0 61.2271 1.35712 61.2271 3.03122C61.2271 4.70531 62.5939 6.06243 64.28 6.06243Z" fill="black"/>
<path d="M15.972 47.9806H6.54785V62.0204H15.972V47.9806Z" fill="black"/>
<path d="M33.6492 32.7696H24.2251V62.0197H33.6492V32.7696Z" fill="black"/>
<path d="M51.3187 43.3051H41.8945V62.0196H51.3187V43.3051Z" fill="black"/>
<path d="M68.996 22.242H59.5718V62.0199H68.996V22.242Z" fill="black"/>
<path d="M0.0673828 62.0198H75.4764" stroke="black" stroke-width="1.7"/>
</svg>
