<svg width="70" height="87" viewBox="0 0 70 87" fill="none" xmlns="http://www.w3.org/2000/svg">
<path d="M35.1778 4.98869C37.35 7.59108 40.6836 10.1182 48.7489 11.3656C49.7813 11.5269 50.8136 11.6022 51.8352 11.6022C56.212 11.6022 59.5779 10.1397 61.6211 8.92454L65.815 13.4518C62.1265 17.3017 57.5777 27.5499 64.8149 54.1115C68.5787 67.9407 56.5991 73.9628 42.8989 79.3826C39.5868 80.6946 36.9844 81.7269 35.1778 82.8883C33.3711 81.7269 30.7688 80.6946 27.4566 79.3826C13.7672 73.952 1.77685 67.93 5.55139 54.1007C12.7886 27.5284 8.2398 17.2909 4.55129 13.4411L8.74523 8.91378C10.7777 10.129 14.1543 11.5915 18.5311 11.5915C19.5527 11.5915 20.585 11.5162 21.6174 11.3549C29.6719 10.1182 33.0163 7.58033 35.1778 4.98869ZM35.1778 0.461395C32.7582 3.79503 31.1881 7.16094 21.198 8.69871C20.2624 8.83851 19.3699 8.90303 18.5203 8.90303C12.1864 8.90303 8.3581 5.36507 8.3581 5.36507L0.529419 13.8175C0.529419 13.8175 12.6488 17.7856 2.949 53.391C-3.61075 77.5007 32.1452 81.157 35.1778 86.4908C38.2103 81.157 73.977 77.5007 67.4065 53.391C57.7067 17.7856 69.8261 13.8175 69.8261 13.8175L61.9867 5.36507C61.9867 5.36507 58.1584 8.90303 51.8245 8.90303C50.9749 8.90303 50.0824 8.83851 49.1468 8.69871C39.1781 7.16094 37.6081 3.79503 35.1778 0.461395Z" fill="black"/>
<path d="M35.1777 62.6284C39.9171 62.6284 43.7592 58.7864 43.7592 54.047C43.7592 49.3076 39.9171 45.4655 35.1777 45.4655C30.4384 45.4655 26.5963 49.3076 26.5963 54.047C26.5963 58.7864 30.4384 62.6284 35.1777 62.6284Z" fill="black"/>
<path d="M8.00317 31.5933H62.363" stroke="black" stroke-width="2.5" stroke-miterlimit="10" stroke-linecap="round" stroke-linejoin="round"/>
</svg>
