<svg width="578" height="509" viewBox="0 0 578 509" fill="none" xmlns="http://www.w3.org/2000/svg">
<path d="M289.002 308.662C318.814 308.662 342.981 284.5 342.981 254.695C342.981 224.89 318.814 200.728 289.002 200.728C259.191 200.728 235.024 224.89 235.024 254.695C235.024 284.5 259.191 308.662 289.002 308.662Z" stroke="white" stroke-width="2.5" stroke-miterlimit="10"/>
<path d="M288.997 308.657C318.832 278.829 318.832 230.551 288.997 200.723" stroke="white" stroke-width="2.5" stroke-miterlimit="10"/>
<path d="M288.997 308.657C259.163 278.829 259.163 230.551 288.997 200.723" stroke="white" stroke-width="2.5" stroke-miterlimit="10"/>
<path d="M235.024 254.69H342.981" stroke="white" stroke-width="2.5" stroke-miterlimit="10"/>
<path d="M248.772 290.667C258.655 285.148 273.014 281.679 288.997 281.679C304.981 281.679 319.344 285.153 329.227 290.672" stroke="white" stroke-width="2.5" stroke-miterlimit="10"/>
<path d="M329.227 218.718C319.344 224.237 304.986 227.711 289.002 227.711C273.019 227.711 258.655 224.237 248.772 218.718" stroke="white" stroke-width="2.5" stroke-miterlimit="10"/>
<path d="M178.044 229.073C176.322 227.96 174.467 226.979 172.622 226.238C170.772 225.496 168.801 224.876 166.951 224.51C156.843 222.534 146.243 225.745 139.093 232.893C133.295 238.685 130.093 246.576 130.093 254.71C130.093 256.549 130.211 258.496 130.625 260.35L130.606 260.341C136.726 293.37 118.854 324.672 87.4233 336.236C85.3637 336.895 83.3432 337.764 81.391 338.886C66.7202 347.518 61.664 366.25 70.1707 381.045C75.8419 390.902 86.2032 396.454 96.8036 396.454C102.109 396.454 107.404 395.093 112.211 392.385C123.89 385.573 129.464 372.467 127.121 359.97L127.165 359.995C120.991 326.663 139.235 295.088 171.192 283.777L171.09 283.718C171.602 283.538 172.119 283.377 172.617 283.182C174.467 282.44 176.322 281.454 178.039 280.342C179.645 279.234 181.246 277.882 182.73 276.526C184.086 275.047 185.316 273.447 186.546 271.837C187.659 270.114 188.523 268.387 189.387 266.542C190.119 264.693 190.743 262.722 191.109 260.746C191.48 258.769 191.729 256.676 191.729 254.71C191.729 246.571 188.401 238.681 182.73 232.893C181.256 231.532 179.65 230.176 178.044 229.073Z" stroke="white" stroke-width="2.5" stroke-miterlimit="10"/>
<path d="M160.914 63.6623C162.881 63.6623 164.857 63.4135 166.951 63.0426C168.801 62.6766 170.772 62.057 172.622 61.3201C174.472 60.5785 176.326 59.5928 178.044 58.4803C179.65 57.3726 181.251 56.021 182.734 54.6645C188.406 48.8676 191.734 40.9775 191.734 32.8482C191.734 30.872 191.485 28.7787 191.114 26.8074C190.748 24.8312 190.128 22.8648 189.391 21.0154C188.523 19.1612 187.664 17.4388 186.551 15.7114C185.321 14.1109 184.091 12.5056 182.734 11.0271C181.256 9.6657 179.655 8.31408 178.044 7.20643C176.321 6.09391 174.467 5.11312 172.622 4.37144C170.772 3.62975 168.801 3.01006 166.951 2.64409C162.881 1.7853 158.81 1.7853 154.872 2.64409C152.895 3.01006 150.928 3.62975 149.079 4.37144C147.224 5.11312 145.501 6.09391 143.773 7.20643C142.046 8.31408 140.567 9.6657 139.088 11.0271C137.726 12.5007 136.375 14.1061 135.267 15.7114C134.154 17.4388 133.173 19.1612 132.431 21.0154C131.689 22.8648 131.069 24.8312 130.703 26.8074C130.211 28.7836 130.089 30.8769 130.089 32.8482C130.089 40.9775 133.29 48.8676 139.088 54.6645C144.881 60.3345 152.773 63.6623 160.914 63.6623Z" stroke="white" stroke-width="2.5" stroke-miterlimit="10"/>
<path d="M278.729 61.8716L278.695 61.8911C310.364 73.1188 328.652 104.46 322.946 137.46C322.517 139.529 322.283 141.647 322.283 143.779C322.283 151.908 325.484 159.798 331.282 165.595C337.08 171.265 344.962 174.593 353.103 174.593C361.117 174.593 369.126 171.265 374.797 165.595C380.595 159.798 383.923 151.908 383.923 143.779C383.923 135.64 380.595 127.75 374.797 121.963C371.551 118.718 367.564 116.424 363.269 115.014L363.406 114.936C331.453 103.606 313.107 71.8014 319.301 38.4792L319.281 38.4938C319.623 36.664 319.823 34.7805 319.823 32.8531C319.823 15.8383 306.021 2.03906 289.002 2.03906C271.984 2.03418 258.177 15.8334 258.177 32.8483C258.177 46.2523 266.767 57.6362 278.729 61.8716Z" stroke="white" stroke-width="2.5" stroke-miterlimit="10"/>
<path d="M416.945 4.13239C424.671 4.13239 432.148 7.17721 437.462 12.491C438.644 13.6669 439.776 15.0527 441.025 16.8581C442.25 18.7758 443.065 20.2884 443.656 21.7669C444.281 23.4308 444.91 25.2411 445.281 27.1929L445.291 27.2515L445.305 27.31C445.681 28.8178 445.857 30.5793 445.857 32.8532C445.857 40.4603 442.797 47.882 437.458 53.2153C432.123 58.5486 424.695 61.613 417.091 61.613C415.447 61.613 413.699 61.4324 411.43 61.0274C409.829 60.7298 408.199 60.2321 406.144 59.4172C404.495 58.7585 402.796 57.8655 401.098 56.7774C399.785 55.8649 398.345 54.6938 396.701 53.1909C391.376 47.7308 388.326 40.3188 388.326 32.8532C388.326 31.16 388.521 29.2521 388.906 27.1929C389.272 25.2607 389.892 23.4699 390.512 21.8206C391.254 20.2396 392.084 18.5562 393.133 16.9021L393.152 16.8728C394.348 15.3211 395.48 13.8524 396.725 12.491C398.345 11.0076 399.775 9.84142 401.093 8.92407C402.777 7.84082 404.475 6.95763 406.139 6.28914C408.184 5.46938 409.819 4.97167 411.454 4.66914C413.241 4.30806 415.09 4.13239 416.945 4.13239ZM416.945 2.07324C414.973 2.07324 413.001 2.25866 411.054 2.64414C409.078 3.01011 407.233 3.6298 405.378 4.37149C403.528 5.11317 401.684 6.09396 399.956 7.20648C398.355 8.31413 396.754 9.66575 395.271 11.0271C393.914 12.5007 392.684 14.1061 391.449 15.7115C390.341 17.4388 389.482 19.1613 388.614 21.0155C387.872 22.9819 387.262 24.8313 386.886 26.8075C386.52 28.7837 386.271 30.877 386.271 32.8483C386.271 40.9775 389.599 48.8677 395.271 54.6646C396.749 56.0211 398.35 57.3727 399.956 58.4803C401.684 59.5929 403.533 60.5785 405.378 61.3202C407.233 62.0521 409.078 62.6767 411.054 63.0427C413.148 63.4135 415.12 63.6624 417.091 63.6624C425.232 63.6624 433.241 60.3345 438.912 54.6646C444.71 48.8677 447.912 40.9775 447.912 32.8483C447.912 30.8721 447.79 28.7788 447.297 26.8075C446.926 24.8313 446.311 22.9868 445.569 21.0155C444.827 19.1613 443.841 17.4388 442.733 15.7115C441.626 14.111 440.391 12.5056 438.912 11.0271C433.153 5.27908 425.081 2.07324 416.945 2.07324Z" fill="white"/>
<path d="M465.789 117.025C454.125 123.734 448.546 136.953 450.869 149.434L450.84 149.42C457.048 182.756 438.727 214.532 406.779 225.872L406.896 225.94C402.577 227.345 398.555 229.644 395.271 232.893C389.599 238.685 386.271 246.575 386.271 254.71C386.271 262.839 389.599 270.729 395.271 276.526C401.069 282.196 409.078 285.524 417.091 285.524C425.232 285.524 433.114 282.196 438.912 276.526C444.71 270.729 447.912 262.839 447.912 254.71C447.912 252.572 447.677 250.455 447.248 248.381C441.533 215.386 459.786 184.069 491.465 172.827L491.407 172.792C493.168 172.163 494.916 171.373 496.609 170.397C511.397 161.892 516.331 143.159 507.825 128.369C499.318 113.58 480.455 108.651 465.789 117.025Z" stroke="white" stroke-width="2.5" stroke-miterlimit="10"/>
<path d="M567 232.893C555.531 221.427 534.945 221.427 523.481 232.893C517.693 238.685 514.481 246.575 514.481 254.71C514.481 262.839 517.688 270.729 523.481 276.526C529.152 282.196 537.171 285.524 545.18 285.524C553.311 285.524 561.329 282.196 567 276.526C572.794 270.729 576 262.839 576 254.71C576 246.571 572.789 238.68 567 232.893Z" stroke="white" stroke-width="2.5" stroke-miterlimit="10"/>
<path d="M496.604 338.886C484.935 332.279 470.762 333.977 461.113 342.233V342.209C435.339 364.225 398.902 364.235 373.118 342.224V342.287C372.176 341.472 371.185 340.682 370.116 339.999C368.516 338.886 366.666 337.905 364.821 337.164C362.966 336.422 361 335.802 359.145 335.436C349.164 333.46 338.437 336.671 331.287 343.819C329.808 345.293 328.574 346.903 327.466 348.503C326.358 350.231 325.372 351.953 324.63 353.808C323.771 355.657 323.273 357.623 322.78 359.6C322.409 361.576 322.287 363.669 322.287 365.64C322.287 367.607 322.409 369.705 322.78 371.676C323.273 373.652 323.766 375.624 324.63 377.473C325.372 379.322 326.358 381.05 327.466 382.767C328.574 384.373 329.808 385.973 331.287 387.457C336.958 393.127 344.967 396.454 353.108 396.454C355.084 396.454 357.051 396.206 359.145 395.835C361 395.469 362.966 394.849 364.821 394.112C366.671 393.371 368.516 392.385 370.116 391.272C371.185 390.584 372.181 389.794 373.128 388.979V389.091C398.902 367.075 435.339 367.065 461.123 389.077V389.047C462.553 390.277 464.1 391.404 465.789 392.39C470.591 395.098 475.896 396.459 481.196 396.459C491.797 396.459 502.148 390.911 507.82 381.05C516.326 366.25 511.275 347.518 496.604 338.886Z" stroke="white" stroke-width="2.5" stroke-miterlimit="10"/>
<path d="M445.569 464.738C444.827 462.884 443.841 461.161 442.733 459.434C441.625 457.834 440.391 456.228 438.912 454.75C437.555 453.388 435.954 452.037 434.226 450.929C432.499 449.817 430.771 448.836 428.921 448.094C427.072 447.353 425.1 446.733 423.128 446.367C413.143 444.391 402.537 447.601 395.392 454.75C393.914 456.223 392.679 457.829 391.444 459.434C390.336 461.161 389.477 462.884 388.609 464.738C387.867 466.588 387.257 468.554 386.881 470.525C386.515 472.501 386.266 474.595 386.266 476.566C386.266 478.533 386.515 480.631 386.881 482.602C387.252 484.578 387.867 486.55 388.609 488.399C389.477 490.248 390.336 491.976 391.444 493.693C392.679 495.421 393.914 496.899 395.392 498.382C401.064 504.052 408.95 507.38 417.086 507.38C419.063 507.38 421.157 507.131 423.128 506.76C425.095 506.395 427.072 505.775 428.921 505.038C430.771 504.296 432.499 503.311 434.226 502.198C435.954 501.09 437.555 499.739 438.912 498.382C440.391 496.904 441.625 495.421 442.733 493.693C443.841 491.971 444.827 490.243 445.569 488.399C446.311 486.55 446.926 484.578 447.296 482.602C447.662 480.626 447.911 478.533 447.911 476.566C447.911 474.59 447.662 472.497 447.296 470.525C446.921 468.554 446.306 466.705 445.569 464.738Z" stroke="white" stroke-width="2.5" stroke-miterlimit="10"/>
<path d="M299.247 447.538L299.276 447.518C267.314 436.213 249.026 404.559 255.2 371.227L255.185 371.237C255.595 369.393 255.717 367.46 255.717 365.635C255.717 363.659 255.591 361.566 255.098 359.595C254.732 357.618 254.117 355.652 253.375 353.803C252.633 351.948 251.647 350.226 250.539 348.499C249.426 346.898 248.192 345.293 246.718 343.814C245.356 342.453 243.755 341.101 242.028 339.994C240.427 338.881 238.577 337.9 236.732 337.159C234.887 336.417 232.911 335.797 230.934 335.431C226.991 334.572 222.921 334.572 218.855 335.431C217.005 335.797 215.034 336.417 213.184 337.159C211.334 337.9 209.489 338.881 207.889 339.994C206.161 341.101 204.56 342.453 203.198 343.814C201.725 345.288 200.49 346.898 199.377 348.499C198.269 350.226 197.283 351.948 196.541 353.803C195.682 355.652 195.185 357.618 194.692 359.595C194.326 361.571 194.077 363.664 194.077 365.635C194.077 367.602 194.326 369.7 194.692 371.671C195.185 373.648 195.678 375.619 196.541 377.468C197.283 379.317 198.269 381.045 199.377 382.762C200.49 384.368 201.725 385.968 203.198 387.452C204.56 388.803 206.161 390.16 207.889 391.267C209.489 392.38 211.339 393.366 213.184 394.107C213.672 394.302 214.18 394.459 214.677 394.634L214.619 394.668C246.581 405.974 264.868 437.628 258.699 470.959L258.724 470.945C258.387 472.77 258.187 474.643 258.187 476.566C258.187 493.576 271.994 507.38 289.007 507.38C306.026 507.38 319.828 493.576 319.828 476.566C319.818 463.152 311.218 451.768 299.247 447.538Z" stroke="white" stroke-width="2.5" stroke-miterlimit="10"/>
<path d="M189.392 464.738C188.523 462.884 187.664 461.162 186.551 459.434C185.321 457.834 184.091 456.228 182.608 454.75C171.265 443.283 150.553 443.283 139.093 454.75C137.614 456.224 136.38 457.829 135.272 459.434C134.159 461.162 133.178 462.884 132.436 464.738C131.694 466.705 131.074 468.554 130.708 470.525C130.216 472.502 130.094 474.595 130.094 476.566C130.094 478.533 130.216 480.631 130.708 482.602C131.074 484.578 131.694 486.55 132.436 488.399C133.178 490.248 134.159 491.976 135.272 493.693C136.38 495.421 137.614 496.899 139.093 498.382C144.886 504.052 152.778 507.38 160.914 507.38C169.045 507.38 176.937 504.052 182.608 498.382C184.086 496.904 185.321 495.421 186.551 493.693C187.664 491.971 188.528 490.243 189.392 488.399C190.124 486.55 190.748 484.578 191.114 482.602C191.485 480.626 191.734 478.533 191.734 476.566C191.734 474.59 191.485 472.497 191.114 470.525C190.748 468.554 190.128 466.583 189.392 464.738Z" stroke="white" stroke-width="2.5" stroke-miterlimit="10"/>
<path d="M61.176 242.877C60.4342 241.023 59.4532 239.3 58.3404 237.573C57.2326 235.972 55.9978 234.367 54.519 232.889C47.374 225.74 36.7687 222.529 26.7832 224.506C24.8163 224.871 22.8397 225.491 20.99 226.233C19.1403 226.975 17.2857 227.955 15.6849 229.068C13.9572 230.176 12.3564 231.527 10.9996 232.889C9.52084 234.362 8.28608 235.967 7.17821 237.573C6.07033 239.3 5.08447 241.023 4.34264 242.877C3.48367 244.843 2.99074 246.693 2.49293 248.669C2.12201 250.645 2 252.738 2 254.71C2 262.839 5.20161 270.729 10.9996 276.526C12.3564 277.882 13.9572 279.234 15.6849 280.342C17.2857 281.454 19.1403 282.44 20.99 283.182C22.8397 283.913 24.8114 284.538 26.7832 284.904C28.7598 285.275 30.7315 285.524 32.8252 285.524C40.839 285.524 48.8479 282.196 54.519 276.526C60.317 270.729 63.6455 262.839 63.6455 254.71C63.6455 252.733 63.3966 250.64 63.0306 248.669C62.5377 246.693 62.0399 244.726 61.176 242.877Z" stroke="white" stroke-width="2.5" stroke-miterlimit="10"/>
<path d="M81.3959 170.523C86.2032 173.232 91.5034 174.593 96.8036 174.593C104.076 174.593 111.23 171.982 116.877 167.161V167.23C142.656 145.218 179.099 145.218 204.877 167.235V167.127C205.824 167.942 206.815 168.733 207.884 169.416C209.485 170.528 211.334 171.514 213.179 172.256C215.029 172.988 217 173.612 218.85 173.978C220.944 174.349 222.92 174.598 224.892 174.598C233.023 174.598 241.042 171.27 246.713 165.6C252.501 159.803 255.713 151.913 255.713 143.784C255.713 141.808 255.586 139.714 255.093 137.743C254.727 135.767 254.112 133.8 253.37 131.951C252.628 130.097 251.642 128.374 250.534 126.647C249.422 125.046 248.187 123.441 246.713 121.963C239.563 114.814 228.963 111.603 218.85 113.58C217 113.946 215.029 114.565 213.179 115.307C211.329 116.049 209.485 117.029 207.884 118.142C206.815 118.825 205.824 119.616 204.882 120.43V120.367C179.103 142.378 142.661 142.378 116.882 120.362V120.465C115.452 119.245 113.905 118.122 112.216 117.151C97.5455 108.646 78.6823 113.575 70.1756 128.369C61.6689 143.159 66.7251 162.019 81.3959 170.523Z" stroke="white" stroke-width="2.5" stroke-miterlimit="10"/>
<path fill-rule="evenodd" clip-rule="evenodd" d="M24.7675 265.781H19.2477C18.0861 265.781 17.5151 265.781 17.1637 265.557C16.7879 265.313 16.5537 264.908 16.5293 264.459C16.5097 264.049 16.7928 263.541 17.3687 262.536L31.0048 238.505C31.5856 237.485 31.8784 236.973 32.2493 236.787C32.6495 236.582 33.123 236.582 33.5232 236.787C33.8941 236.977 34.1869 237.485 34.7677 238.505L37.5691 243.399L37.5837 243.423C38.2084 244.516 38.5305 245.073 38.6672 245.658C38.8234 246.292 38.8234 246.966 38.6672 247.6C38.5257 248.186 38.2133 248.747 37.5788 249.859L30.4094 262.517L30.3899 262.551C29.7603 263.654 29.4382 264.215 28.9941 264.634C28.5109 265.098 27.9301 265.43 27.2956 265.62C26.7197 265.781 26.0706 265.781 24.7675 265.781Z" fill="white"/>
<path fill-rule="evenodd" clip-rule="evenodd" d="M38.7159 265.781H46.6272C47.7937 265.781 48.3842 265.781 48.7307 265.552C49.1065 265.308 49.3457 264.893 49.3652 264.449C49.3847 264.049 49.1065 263.566 48.555 262.619C48.5355 262.585 48.516 262.556 48.4964 262.522L44.5335 255.744L44.4896 255.666C43.9332 254.724 43.6501 254.251 43.289 254.065C42.8888 253.86 42.4202 253.86 42.0249 254.065C41.6637 254.256 41.366 254.748 40.7853 255.749L36.8369 262.526L36.8223 262.551C36.2464 263.546 35.9536 264.049 35.978 264.459C36.0073 264.908 36.2366 265.317 36.6124 265.561C36.9589 265.781 37.5495 265.781 38.7159 265.781Z" fill="white"/>
<path d="M173.881 28.6031C174.467 24.6751 171.48 22.5672 167.39 21.157L168.718 15.8383L165.477 15.0332L164.184 20.2104C163.335 19.9957 162.456 19.7956 161.587 19.6004L162.886 14.3891L159.65 13.584L158.322 18.9026C157.619 18.7416 156.926 18.5855 156.253 18.4147L156.258 18.4001L151.792 17.2826L150.928 20.7422C150.928 20.7422 153.33 21.2936 153.281 21.3278C154.594 21.6547 154.828 22.5232 154.789 23.2112L153.276 29.2716C153.369 29.296 153.486 29.3253 153.613 29.3789C153.505 29.3545 153.388 29.3253 153.271 29.296L151.153 37.7863C150.992 38.1865 150.587 38.7817 149.669 38.5573C149.703 38.6061 147.317 37.9718 147.317 37.9718L145.711 41.6802L149.923 42.7293C150.709 42.9244 151.475 43.1294 152.231 43.3246L150.889 48.7067L154.125 49.5118L155.453 44.1882C156.336 44.4273 157.195 44.6469 158.034 44.8567L156.712 50.1559L159.952 50.961L161.294 45.5935C166.814 46.6378 170.968 46.2181 172.715 41.2215C174.125 37.2008 172.647 34.883 169.738 33.3704C171.861 32.8727 173.457 31.4771 173.881 28.6031ZM166.482 38.9769C165.482 42.9976 158.713 40.8263 156.516 40.2798L158.293 33.1508C160.489 33.7022 167.527 34.7854 166.482 38.9769ZM167.483 28.5445C166.57 32.1993 160.933 30.3451 159.108 29.8864L160.719 23.4211C162.549 23.8797 168.435 24.7337 167.483 28.5445Z" fill="white"/>
<path d="M408.135 476.459C408.052 477.928 409.18 479.187 410.649 479.27C410.702 479.27 410.756 479.27 410.805 479.27C412.284 479.27 413.479 478.074 413.47 476.596C413.47 475.117 412.274 473.922 410.795 473.931C409.385 473.931 408.208 475.044 408.135 476.459Z" fill="white"/>
<path d="M398.179 475.771C397.705 475.742 397.291 476.108 397.271 476.586C397.252 477.059 397.608 477.474 398.086 477.493C398.559 477.523 398.965 477.157 398.994 476.679C399.023 476.2 398.657 475.8 398.179 475.771Z" fill="white"/>
<path d="M407.969 460.967C408.394 460.757 408.56 460.225 408.35 459.805C408.14 459.381 407.608 459.215 407.189 459.425C406.764 459.634 406.598 460.152 406.808 460.576C407.018 461.01 407.535 461.191 407.969 460.967C407.955 460.967 407.969 460.967 407.969 460.967Z" fill="white"/>
<path d="M410.673 465.69C411.327 465.363 411.591 464.558 411.264 463.904C410.937 463.25 410.131 462.987 409.477 463.313C408.823 463.64 408.56 464.445 408.887 465.099C409.214 465.753 410.019 466.017 410.673 465.69Z" fill="white"/>
<path d="M401.561 468.935C402.069 469.262 402.747 469.125 403.084 468.617C403.411 468.11 403.274 467.432 402.767 467.095C402.259 466.768 401.581 466.905 401.244 467.412C400.907 467.92 401.054 468.608 401.561 468.935Z" fill="white"/>
<path d="M403.182 475.293C402.44 475.249 401.82 475.81 401.776 476.552C401.732 477.293 402.293 477.913 403.035 477.957C403.777 478.001 404.397 477.44 404.441 476.698C404.48 475.971 403.919 475.337 403.182 475.293Z" fill="white"/>
<path d="M401.713 484.247C401.176 484.52 400.951 485.179 401.225 485.725C401.498 486.262 402.157 486.486 402.703 486.213C403.24 485.94 403.465 485.281 403.191 484.735C402.913 484.193 402.25 483.969 401.713 484.247Z" fill="white"/>
<path d="M406.891 472.536C407.618 473.009 408.594 472.809 409.058 472.082C409.531 471.355 409.331 470.379 408.604 469.915C407.877 469.442 406.901 469.642 406.437 470.369C405.959 471.091 406.159 472.062 406.891 472.536Z" fill="white"/>
<path d="M423.323 465.583C423.938 465.983 424.773 465.817 425.173 465.202C425.573 464.587 425.407 463.753 424.792 463.353C424.178 462.953 423.343 463.118 422.943 463.733C422.533 464.358 422.699 465.182 423.323 465.583Z" fill="white"/>
<path d="M426.052 460.883C426.452 461.147 426.984 461.03 427.247 460.63C427.511 460.23 427.394 459.698 426.993 459.434C426.593 459.171 426.061 459.288 425.798 459.678C425.544 460.078 425.661 460.62 426.052 460.883Z" fill="white"/>
<path d="M423.523 473.912C422.054 473.829 420.786 474.956 420.712 476.425C420.629 477.894 421.757 479.162 423.226 479.235C423.279 479.235 423.333 479.235 423.372 479.235C424.841 479.235 426.037 478.04 426.037 476.561C426.052 475.156 424.939 473.985 423.523 473.912Z" fill="white"/>
<path d="M411.552 472.345C412.006 473.243 412.928 473.814 413.938 473.814C415.407 473.814 416.603 472.619 416.603 471.14C416.603 470.73 416.51 470.316 416.32 469.935C415.656 468.613 414.046 468.086 412.738 468.749C411.415 469.432 410.883 471.038 411.552 472.345Z" fill="white"/>
<path d="M432.464 468.935C433.001 468.662 433.216 467.993 432.938 467.456C432.664 466.92 431.996 466.705 431.459 466.983C430.922 467.256 430.707 467.915 430.971 468.452C431.259 468.988 431.918 469.208 432.464 468.935Z" fill="white"/>
<path d="M425.7 469.779C424.929 470.169 424.612 471.111 425.002 471.882C425.393 472.653 426.335 472.97 427.106 472.58C427.877 472.189 428.194 471.248 427.804 470.477C427.413 469.706 426.471 469.398 425.7 469.779Z" fill="white"/>
<path d="M416.983 460.479C417.584 460.508 418.106 460.044 418.145 459.444C418.184 458.844 417.711 458.322 417.11 458.283C416.51 458.254 415.988 458.707 415.949 459.308C415.915 459.922 416.378 460.44 416.983 460.479Z" fill="white"/>
<path d="M416.974 467.383C417.842 467.437 418.579 466.768 418.623 465.905C418.677 465.036 418.008 464.299 417.144 464.255C416.276 464.202 415.539 464.87 415.495 465.734C415.451 466.597 416.105 467.339 416.974 467.383Z" fill="white"/>
<path d="M408.477 483.398C409.248 483.007 409.565 482.065 409.175 481.295C408.784 480.524 407.842 480.206 407.071 480.597C406.3 480.987 405.983 481.929 406.373 482.7C406.764 483.476 407.701 483.793 408.477 483.398Z" fill="white"/>
<path d="M417.984 469.672C417.179 470.906 417.521 472.555 418.755 473.36C419.99 474.166 421.64 473.824 422.445 472.589C423.25 471.355 422.909 469.706 421.674 468.901C421.24 468.618 420.732 468.466 420.215 468.466C419.317 468.471 418.482 468.925 417.984 469.672Z" fill="white"/>
<path d="M422.626 480.831C421.962 479.509 420.351 478.982 419.043 479.645C417.721 480.309 417.194 481.919 417.857 483.227C418.521 484.549 420.132 485.076 421.44 484.413C422.753 483.759 423.289 482.173 422.635 480.851C422.635 480.841 422.635 480.841 422.626 480.831Z" fill="white"/>
<path d="M427.286 480.641C426.559 480.167 425.583 480.367 425.119 481.094C424.646 481.822 424.846 482.797 425.573 483.261C426.3 483.734 427.276 483.534 427.74 482.807C428.218 482.09 428.013 481.119 427.286 480.641Z" fill="white"/>
<path d="M432.401 476.639C432.445 475.898 431.884 475.278 431.142 475.234C430.4 475.19 429.78 475.751 429.737 476.493C429.693 477.235 430.254 477.854 430.996 477.898C431.728 477.937 432.357 477.366 432.401 476.639Z" fill="white"/>
<path d="M436.091 475.688C435.617 475.654 435.202 476.025 435.183 476.503C435.163 476.976 435.52 477.391 435.998 477.41C436.471 477.44 436.876 477.074 436.906 476.596C436.925 476.117 436.564 475.717 436.091 475.688Z" fill="white"/>
<path d="M432.611 484.246C432.104 483.92 431.425 484.056 431.088 484.564C430.761 485.071 430.898 485.749 431.406 486.086C431.913 486.413 432.592 486.276 432.928 485.769C433.265 485.261 433.119 484.573 432.611 484.246Z" fill="white"/>
<path d="M408.116 492.298C407.715 492.034 407.184 492.151 406.92 492.542C406.656 492.942 406.774 493.474 407.164 493.737C407.564 494.001 408.096 493.884 408.36 493.493C408.633 493.098 408.516 492.561 408.116 492.298Z" fill="white"/>
<path d="M426.208 492.21C425.783 492.42 425.617 492.952 425.827 493.371C426.037 493.796 426.569 493.962 426.989 493.752C427.413 493.542 427.579 493.025 427.369 492.6C427.16 492.171 426.642 491.99 426.208 492.21C426.218 492.21 426.208 492.21 426.208 492.21Z" fill="white"/>
<path d="M416.188 483.505C416.993 482.27 416.651 480.621 415.417 479.806C414.182 479.001 412.532 479.343 411.717 480.577C410.902 481.812 411.253 483.461 412.488 484.276C412.923 484.559 413.43 484.71 413.948 484.71C414.855 484.72 415.695 484.266 416.188 483.505Z" fill="white"/>
<path d="M410.854 487.594C410.239 487.194 409.404 487.36 409.004 487.975C408.604 488.589 408.77 489.424 409.384 489.824C409.999 490.224 410.834 490.058 411.234 489.443C411.644 488.828 411.478 487.994 410.854 487.594Z" fill="white"/>
<path d="M417.076 492.698C416.476 492.664 415.954 493.132 415.915 493.732C415.876 494.332 416.349 494.855 416.95 494.894C417.55 494.928 418.072 494.469 418.111 493.869C418.145 493.259 417.682 492.742 417.076 492.698Z" fill="white"/>
<path d="M417.086 485.798C416.217 485.745 415.48 486.413 415.436 487.277C415.383 488.145 416.051 488.882 416.915 488.926C417.779 488.97 418.521 488.311 418.565 487.448C418.618 486.589 417.955 485.842 417.086 485.798Z" fill="white"/>
<path d="M423.504 487.487C422.85 487.823 422.586 488.628 422.923 489.282C423.26 489.936 424.065 490.2 424.719 489.863C425.373 489.536 425.637 488.731 425.31 488.077C424.973 487.423 424.168 487.15 423.504 487.487Z" fill="white"/>
<path d="M150.421 483.178C150.606 482.993 150.865 482.88 151.138 482.88H175.941C176.395 482.88 176.619 483.427 176.302 483.749L171.402 488.648C171.216 488.833 170.958 488.946 170.685 488.946H145.882C145.428 488.946 145.203 488.399 145.521 488.077L150.421 483.178Z" fill="white"/>
<path d="M150.421 464.89C150.616 464.704 150.875 464.592 151.138 464.592H175.941C176.395 464.592 176.619 465.138 176.302 465.46L171.402 470.359C171.216 470.545 170.958 470.657 170.685 470.657H145.882C145.428 470.657 145.203 470.111 145.521 469.789L150.421 464.89Z" fill="white"/>
<path d="M171.407 473.975C171.221 473.79 170.963 473.678 170.69 473.678H145.887C145.433 473.678 145.208 474.224 145.526 474.546L150.426 479.445C150.611 479.631 150.87 479.743 151.143 479.743H175.946C176.4 479.743 176.624 479.196 176.307 478.874L171.407 473.975Z" fill="white"/>
<path d="M556.146 242.135H560.607L551.329 251.318C547.971 254.641 542.52 254.641 539.157 251.318L529.874 242.135H534.335L541.383 249.113C543.52 251.221 546.951 251.221 549.089 249.113L556.146 242.135Z" fill="white"/>
<path d="M534.277 267.679H529.816L539.152 258.438C542.51 255.115 547.962 255.115 551.324 258.438L560.661 267.679H556.2L549.089 260.643C546.951 258.535 543.52 258.535 541.383 260.643L534.277 267.679Z" fill="white"/>
<path d="M427.125 45.6423L421.893 37.4301H429.404V34.3267H404.768V37.4301H412.279L407.047 45.6423H410.941L417.086 36.0053L423.231 45.6423H427.125ZM429.404 31.3161V28.2127H422.045L427.213 20.0932H423.289L417.086 29.8912L410.883 20.0981H406.959L412.127 28.2176H404.768V31.3502L429.404 31.3161Z" fill="white"/>
</svg>
