<?xml version="1.0" standalone="no"?>
<!DOCTYPE svg PUBLIC "-//W3C//DTD SVG 20010904//EN"
 "http://www.w3.org/TR/2001/REC-SVG-20010904/DTD/svg10.dtd">
<svg version="1.0" xmlns="http://www.w3.org/2000/svg"
 width="1000.000000pt" height="1000.000000pt" viewBox="0 0 1000.000000 1000.000000"
 preserveAspectRatio="xMidYMid meet">
<metadata>
Created by potrace 1.14, written by Peter Selinger 2001-2017
</metadata>
<g transform="translate(0.000000,1000.000000) scale(0.100000,-0.100000)"
fill="#000000" stroke="none">
<path d="M2692 9377 c-157 -20 -301 -115 -387 -257 -100 -166 -100 -385 1
-557 60 -103 187 -201 311 -238 179 -54 385 -6 522 121 228 211 235 560 16
779 -122 122 -285 175 -463 152z"/>
<path d="M4930 9379 c-261 -28 -472 -264 -472 -529 -1 -148 53 -279 157 -384
61 -62 141 -110 260 -156 73 -29 204 -103 269 -153 224 -170 372 -404 432
-680 19 -85 26 -308 14 -387 -35 -212 -15 -336 74 -470 65 -99 181 -182 305
-220 71 -21 203 -23 278 -3 311 80 492 422 376 712 -63 159 -157 250 -330 320
-43 18 -109 48 -148 68 -387 196 -630 593 -629 1028 1 68 5 121 22 255 21 162
-34 323 -151 442 -124 124 -276 177 -457 157z"/>
<path d="M7081 9365 c-182 -51 -339 -213 -382 -395 -43 -185 17 -388 153 -516
65 -61 105 -86 194 -120 59 -23 84 -27 179 -27 134 -1 218 25 320 98 148 105
228 266 224 450 -5 227 -133 408 -354 497 -68 27 -256 35 -334 13z"/>
<path d="M1588 7458 c-197 -23 -366 -157 -439 -348 -89 -234 2 -509 215 -644
95 -61 165 -80 296 -80 108 0 120 2 190 32 41 18 98 50 127 70 231 164 327
217 478 260 104 31 235 49 330 46 76 -3 185 -13 195 -19 4 -2 22 -7 41 -10 35
-6 120 -30 154 -45 143 -60 216 -102 340 -198 72 -56 133 -91 207 -117 60 -22
229 -27 296 -9 228 61 387 248 408 478 20 219 -101 435 -296 529 -41 20 -90
39 -109 42 -19 3 -38 8 -43 11 -16 10 -164 6 -208 -6 -25 -7 -49 -13 -55 -14
-35 -6 -134 -65 -220 -130 -152 -116 -287 -182 -464 -228 -69 -17 -115 -22
-236 -22 -174 -1 -219 4 -341 40 -141 40 -334 140 -409 211 -11 10 -40 33 -65
50 -129 87 -245 118 -392 101z"/>
<path d="M8274 7459 c-101 -13 -222 -67 -294 -131 -78 -71 -146 -190 -168
-293 -12 -54 -9 -205 6 -299 10 -63 8 -237 -2 -296 -37 -209 -98 -361 -201
-505 -134 -189 -307 -320 -550 -421 -124 -51 -175 -82 -232 -143 -231 -242
-183 -644 99 -825 272 -174 636 -76 781 210 56 110 70 233 44 389 -14 85 -15
257 -3 340 63 409 335 752 721 906 158 62 219 104 294 197 171 213 151 523
-45 718 -117 115 -287 173 -450 153z"/>
<path d="M410 5525 c-194 -54 -344 -203 -395 -394 -16 -63 -17 -185 -1 -254
32 -135 133 -274 249 -341 96 -57 169 -75 291 -72 124 3 204 26 294 88 56 38
152 136 152 154 0 3 9 18 19 33 39 55 66 160 66 261 -1 234 -145 435 -370 514
-70 25 -234 30 -305 11z"/>
<path d="M2630 5521 c-96 -26 -166 -67 -241 -141 -115 -113 -165 -245 -156
-410 3 -52 8 -106 12 -120 19 -77 9 -320 -18 -435 -47 -199 -157 -396 -300
-539 -128 -128 -254 -209 -427 -276 -191 -75 -304 -188 -360 -362 -96 -299 98
-627 410 -691 64 -13 86 -14 185 -3 194 21 364 162 437 362 26 71 32 222 13
329 -12 71 -12 267 0 340 39 238 151 460 314 624 123 124 263 214 446 286 166
66 280 176 335 323 85 226 10 480 -185 628 -46 35 -142 79 -200 92 -71 16
-195 13 -265 -7z"/>
<path d="M9354 5523 c-262 -45 -447 -272 -439 -539 10 -297 247 -524 545 -524
247 1 460 167 524 410 9 36 13 89 11 150 -8 241 -155 429 -386 494 -75 21
-164 24 -255 9z"/>
<path d="M3756 3604 c-249 -60 -420 -289 -411 -549 8 -219 137 -398 352 -484
208 -84 338 -167 461 -293 211 -216 326 -495 326 -793 0 -83 -12 -213 -20
-226 -8 -13 -8 -165 0 -207 36 -188 187 -354 376 -413 83 -26 225 -28 307 -4
147 42 275 149 339 281 36 75 40 87 52 164 26 157 -30 326 -144 445 -75 76
-122 106 -259 160 -272 109 -490 307 -614 560 -108 218 -144 469 -104 712 35
209 -21 384 -164 519 -126 119 -324 170 -497 128z"/>
<path d="M5980 3601 c-247 -66 -408 -273 -408 -524 0 -92 14 -149 56 -238 86
-179 278 -301 477 -301 137 0 247 38 361 127 83 65 179 127 249 163 62 30 235
95 235 87 0 -2 11 0 25 5 14 5 46 13 72 17 62 10 305 10 363 0 177 -31 362
-109 500 -211 30 -23 57 -43 60 -46 22 -24 116 -83 160 -101 445 -180 882 241
719 691 -27 73 -76 146 -139 206 -93 88 -208 135 -345 140 -148 5 -255 -34
-406 -148 -166 -126 -284 -184 -484 -237 -86 -23 -254 -31 -377 -18 -185 20
-383 97 -543 212 -44 32 -82 60 -85 64 -16 21 -125 83 -181 101 -87 30 -221
35 -309 11z"/>
<path d="M7155 1693 c-132 -25 -223 -71 -310 -159 -76 -75 -126 -161 -145
-249 -65 -288 101 -568 383 -650 68 -20 212 -22 278 -5 77 20 184 78 237 129
76 73 140 181 158 266 2 11 6 31 9 45 7 30 7 135 0 170 -13 67 -19 89 -40 137
-61 136 -180 244 -325 293 -57 19 -196 32 -245 23z"/>
<path d="M2680 1687 c-3 -3 -18 -7 -35 -10 -46 -7 -154 -54 -194 -84 -63 -47
-91 -76 -132 -139 -57 -88 -81 -163 -87 -269 -12 -255 132 -462 379 -545 136
-46 338 -19 458 62 121 81 215 220 237 353 49 280 -111 536 -386 618 -43 13
-230 23 -240 14z"/>
</g>
</svg>
